<mxfile host="app.diagrams.net" modified="2023-11-20T08:16:41.936Z" agent="Mozilla/5.0 (Windows NT 10.0; Win64; x64) AppleWebKit/537.36 (KHTML, like Gecko) Chrome/119.0.0.0 Safari/537.36 Edg/119.0.0.0" etag="WnfWHog797V9Uv9Q-RjW" version="22.1.3" type="github">
  <diagram name="Page-1" id="IJoKYj80ms4uO_Z6W03P">
    <mxGraphModel dx="8927" dy="5007" grid="1" gridSize="10" guides="1" tooltips="1" connect="1" arrows="1" fold="1" page="1" pageScale="1" pageWidth="4000" pageHeight="4000" math="0" shadow="0">
      <root>
        <mxCell id="0" />
        <mxCell id="1" parent="0" />
        <mxCell id="bmH2QS8Xi0sfcgq4WeDn-260" value="" style="group" vertex="1" connectable="0" parent="1">
          <mxGeometry x="280" y="410" width="3630.66" height="3166.28" as="geometry" />
        </mxCell>
        <mxCell id="bmH2QS8Xi0sfcgq4WeDn-1" value="w19541048_Tour_Session" style="swimlane;fontStyle=0;childLayout=stackLayout;horizontal=1;startSize=30;horizontalStack=0;resizeParent=1;resizeParentMax=0;resizeLast=0;collapsible=1;marginBottom=0;whiteSpace=wrap;html=1;" vertex="1" parent="bmH2QS8Xi0sfcgq4WeDn-260">
          <mxGeometry x="1308.7262790697675" y="1055.4266666666667" width="295.5188372093024" height="916.5584000000001" as="geometry" />
        </mxCell>
        <mxCell id="bmH2QS8Xi0sfcgq4WeDn-2" value="w19541048_tourSessionNo {PK}" style="text;strokeColor=none;fillColor=none;align=left;verticalAlign=middle;spacingLeft=4;spacingRight=4;overflow=hidden;points=[[0,0.5],[1,0.5]];portConstraint=eastwest;rotatable=0;whiteSpace=wrap;html=1;" vertex="1" parent="bmH2QS8Xi0sfcgq4WeDn-1">
          <mxGeometry y="30" width="295.5188372093024" height="63.32560000000001" as="geometry" />
        </mxCell>
        <mxCell id="bmH2QS8Xi0sfcgq4WeDn-187" value="w19541048_tourId {FK}&amp;nbsp;" style="text;strokeColor=none;fillColor=none;align=left;verticalAlign=middle;spacingLeft=4;spacingRight=4;overflow=hidden;points=[[0,0.5],[1,0.5]];portConstraint=eastwest;rotatable=0;whiteSpace=wrap;html=1;" vertex="1" parent="bmH2QS8Xi0sfcgq4WeDn-1">
          <mxGeometry y="93.32560000000001" width="295.5188372093024" height="63.32560000000001" as="geometry" />
        </mxCell>
        <mxCell id="bmH2QS8Xi0sfcgq4WeDn-3" value="w19541048_tourSessionTitle" style="text;strokeColor=none;fillColor=none;align=left;verticalAlign=middle;spacingLeft=4;spacingRight=4;overflow=hidden;points=[[0,0.5],[1,0.5]];portConstraint=eastwest;rotatable=0;whiteSpace=wrap;html=1;" vertex="1" parent="bmH2QS8Xi0sfcgq4WeDn-1">
          <mxGeometry y="156.65120000000002" width="295.5188372093024" height="63.32560000000001" as="geometry" />
        </mxCell>
        <mxCell id="bmH2QS8Xi0sfcgq4WeDn-5" value="w19541048_startDateTime" style="text;strokeColor=none;fillColor=none;align=left;verticalAlign=middle;spacingLeft=4;spacingRight=4;overflow=hidden;points=[[0,0.5],[1,0.5]];portConstraint=eastwest;rotatable=0;whiteSpace=wrap;html=1;" vertex="1" parent="bmH2QS8Xi0sfcgq4WeDn-1">
          <mxGeometry y="219.97680000000003" width="295.5188372093024" height="63.32560000000001" as="geometry" />
        </mxCell>
        <mxCell id="bmH2QS8Xi0sfcgq4WeDn-6" value="w19541048_startAddress" style="text;strokeColor=none;fillColor=none;align=left;verticalAlign=middle;spacingLeft=4;spacingRight=4;overflow=hidden;points=[[0,0.5],[1,0.5]];portConstraint=eastwest;rotatable=0;whiteSpace=wrap;html=1;" vertex="1" parent="bmH2QS8Xi0sfcgq4WeDn-1">
          <mxGeometry y="283.30240000000003" width="295.5188372093024" height="63.32560000000001" as="geometry" />
        </mxCell>
        <mxCell id="bmH2QS8Xi0sfcgq4WeDn-7" value="w19541048_endDateTime" style="text;strokeColor=none;fillColor=none;align=left;verticalAlign=middle;spacingLeft=4;spacingRight=4;overflow=hidden;points=[[0,0.5],[1,0.5]];portConstraint=eastwest;rotatable=0;whiteSpace=wrap;html=1;" vertex="1" parent="bmH2QS8Xi0sfcgq4WeDn-1">
          <mxGeometry y="346.62800000000004" width="295.5188372093024" height="63.32560000000001" as="geometry" />
        </mxCell>
        <mxCell id="bmH2QS8Xi0sfcgq4WeDn-10" value="w19541048_endAddress" style="text;strokeColor=none;fillColor=none;align=left;verticalAlign=middle;spacingLeft=4;spacingRight=4;overflow=hidden;points=[[0,0.5],[1,0.5]];portConstraint=eastwest;rotatable=0;whiteSpace=wrap;html=1;" vertex="1" parent="bmH2QS8Xi0sfcgq4WeDn-1">
          <mxGeometry y="409.95360000000005" width="295.5188372093024" height="63.32560000000001" as="geometry" />
        </mxCell>
        <mxCell id="bmH2QS8Xi0sfcgq4WeDn-11" value="w19541048_tourSessionPrice" style="text;strokeColor=none;fillColor=none;align=left;verticalAlign=middle;spacingLeft=4;spacingRight=4;overflow=hidden;points=[[0,0.5],[1,0.5]];portConstraint=eastwest;rotatable=0;whiteSpace=wrap;html=1;" vertex="1" parent="bmH2QS8Xi0sfcgq4WeDn-1">
          <mxGeometry y="473.27920000000006" width="295.5188372093024" height="63.32560000000001" as="geometry" />
        </mxCell>
        <mxCell id="bmH2QS8Xi0sfcgq4WeDn-13" value="w19541048_maxNbCustomers" style="text;strokeColor=none;fillColor=none;align=left;verticalAlign=middle;spacingLeft=4;spacingRight=4;overflow=hidden;points=[[0,0.5],[1,0.5]];portConstraint=eastwest;rotatable=0;whiteSpace=wrap;html=1;" vertex="1" parent="bmH2QS8Xi0sfcgq4WeDn-1">
          <mxGeometry y="536.6048000000001" width="295.5188372093024" height="63.32560000000001" as="geometry" />
        </mxCell>
        <mxCell id="bmH2QS8Xi0sfcgq4WeDn-12" value="w19541048_difficultyLevel" style="text;strokeColor=none;fillColor=none;align=left;verticalAlign=middle;spacingLeft=4;spacingRight=4;overflow=hidden;points=[[0,0.5],[1,0.5]];portConstraint=eastwest;rotatable=0;whiteSpace=wrap;html=1;" vertex="1" parent="bmH2QS8Xi0sfcgq4WeDn-1">
          <mxGeometry y="599.9304000000001" width="295.5188372093024" height="63.32560000000001" as="geometry" />
        </mxCell>
        <mxCell id="bmH2QS8Xi0sfcgq4WeDn-8" value="w19541048_cyclingFlag" style="text;strokeColor=none;fillColor=none;align=left;verticalAlign=middle;spacingLeft=4;spacingRight=4;overflow=hidden;points=[[0,0.5],[1,0.5]];portConstraint=eastwest;rotatable=0;whiteSpace=wrap;html=1;" vertex="1" parent="bmH2QS8Xi0sfcgq4WeDn-1">
          <mxGeometry y="663.2560000000001" width="295.5188372093024" height="63.32560000000001" as="geometry" />
        </mxCell>
        <mxCell id="bmH2QS8Xi0sfcgq4WeDn-9" value="w19541048_walkingFlag" style="text;strokeColor=none;fillColor=none;align=left;verticalAlign=middle;spacingLeft=4;spacingRight=4;overflow=hidden;points=[[0,0.5],[1,0.5]];portConstraint=eastwest;rotatable=0;whiteSpace=wrap;html=1;" vertex="1" parent="bmH2QS8Xi0sfcgq4WeDn-1">
          <mxGeometry y="726.5816000000001" width="295.5188372093024" height="63.32560000000001" as="geometry" />
        </mxCell>
        <mxCell id="bmH2QS8Xi0sfcgq4WeDn-221" value="w19541048_staffNo {FK}" style="text;strokeColor=none;fillColor=none;align=left;verticalAlign=middle;spacingLeft=4;spacingRight=4;overflow=hidden;points=[[0,0.5],[1,0.5]];portConstraint=eastwest;rotatable=0;whiteSpace=wrap;html=1;" vertex="1" parent="bmH2QS8Xi0sfcgq4WeDn-1">
          <mxGeometry y="789.9072000000001" width="295.5188372093024" height="63.32560000000001" as="geometry" />
        </mxCell>
        <mxCell id="bmH2QS8Xi0sfcgq4WeDn-4" value="w19541048_foodSessionFlag" style="text;strokeColor=none;fillColor=none;align=left;verticalAlign=middle;spacingLeft=4;spacingRight=4;overflow=hidden;points=[[0,0.5],[1,0.5]];portConstraint=eastwest;rotatable=0;whiteSpace=wrap;html=1;" vertex="1" parent="bmH2QS8Xi0sfcgq4WeDn-1">
          <mxGeometry y="853.2328000000001" width="295.5188372093024" height="63.32560000000001" as="geometry" />
        </mxCell>
        <mxCell id="bmH2QS8Xi0sfcgq4WeDn-14" value="w19541048_Staff" style="swimlane;fontStyle=0;childLayout=stackLayout;horizontal=1;startSize=30;horizontalStack=0;resizeParent=1;resizeParentMax=0;resizeLast=0;collapsible=1;marginBottom=0;whiteSpace=wrap;html=1;" vertex="1" parent="bmH2QS8Xi0sfcgq4WeDn-260">
          <mxGeometry x="84.4339534883721" y="1456.4888" width="295.5188372093024" height="283.30240000000003" as="geometry" />
        </mxCell>
        <mxCell id="bmH2QS8Xi0sfcgq4WeDn-16" value="w19541048_staffNo {PK}" style="text;strokeColor=none;fillColor=none;align=left;verticalAlign=middle;spacingLeft=4;spacingRight=4;overflow=hidden;points=[[0,0.5],[1,0.5]];portConstraint=eastwest;rotatable=0;whiteSpace=wrap;html=1;" vertex="1" parent="bmH2QS8Xi0sfcgq4WeDn-14">
          <mxGeometry y="30" width="295.5188372093024" height="63.32560000000001" as="geometry" />
        </mxCell>
        <mxCell id="bmH2QS8Xi0sfcgq4WeDn-258" value="w19541048_phoneId {FK}" style="text;strokeColor=none;fillColor=none;align=left;verticalAlign=middle;spacingLeft=4;spacingRight=4;overflow=hidden;points=[[0,0.5],[1,0.5]];portConstraint=eastwest;rotatable=0;whiteSpace=wrap;html=1;" vertex="1" parent="bmH2QS8Xi0sfcgq4WeDn-14">
          <mxGeometry y="93.32560000000001" width="295.5188372093024" height="63.32560000000001" as="geometry" />
        </mxCell>
        <mxCell id="bmH2QS8Xi0sfcgq4WeDn-257" value="w19541048_staffFullName" style="text;strokeColor=none;fillColor=none;align=left;verticalAlign=middle;spacingLeft=4;spacingRight=4;overflow=hidden;points=[[0,0.5],[1,0.5]];portConstraint=eastwest;rotatable=0;whiteSpace=wrap;html=1;" vertex="1" parent="bmH2QS8Xi0sfcgq4WeDn-14">
          <mxGeometry y="156.65120000000002" width="295.5188372093024" height="63.32560000000001" as="geometry" />
        </mxCell>
        <mxCell id="bmH2QS8Xi0sfcgq4WeDn-17" value="w19541048_staffEmail" style="text;strokeColor=none;fillColor=none;align=left;verticalAlign=middle;spacingLeft=4;spacingRight=4;overflow=hidden;points=[[0,0.5],[1,0.5]];portConstraint=eastwest;rotatable=0;whiteSpace=wrap;html=1;" vertex="1" parent="bmH2QS8Xi0sfcgq4WeDn-14">
          <mxGeometry y="219.97680000000003" width="295.5188372093024" height="63.32560000000001" as="geometry" />
        </mxCell>
        <mxCell id="bmH2QS8Xi0sfcgq4WeDn-216" style="edgeStyle=orthogonalEdgeStyle;rounded=0;orthogonalLoop=1;jettySize=auto;html=1;entryX=0;entryY=0.5;entryDx=0;entryDy=0;jumpStyle=arc;endArrow=none;endFill=0;" edge="1" parent="bmH2QS8Xi0sfcgq4WeDn-260" source="bmH2QS8Xi0sfcgq4WeDn-27" target="bmH2QS8Xi0sfcgq4WeDn-6">
          <mxGeometry relative="1" as="geometry" />
        </mxCell>
        <mxCell id="bmH2QS8Xi0sfcgq4WeDn-27" value="w19541048_StaffType" style="swimlane;fontStyle=0;childLayout=stackLayout;horizontal=1;startSize=30;horizontalStack=0;resizeParent=1;resizeParentMax=0;resizeLast=0;collapsible=1;marginBottom=0;whiteSpace=wrap;html=1;" vertex="1" parent="bmH2QS8Xi0sfcgq4WeDn-260">
          <mxGeometry x="654.3631395348838" y="1773.1168" width="295.5188372093024" height="346.6280000000001" as="geometry" />
        </mxCell>
        <mxCell id="bmH2QS8Xi0sfcgq4WeDn-15" value="w19541048_staffNo {PK} {FK}" style="text;strokeColor=none;fillColor=none;align=left;verticalAlign=middle;spacingLeft=4;spacingRight=4;overflow=hidden;points=[[0,0.5],[1,0.5]];portConstraint=eastwest;rotatable=0;whiteSpace=wrap;html=1;" vertex="1" parent="bmH2QS8Xi0sfcgq4WeDn-27">
          <mxGeometry y="30" width="295.5188372093024" height="63.32560000000002" as="geometry" />
        </mxCell>
        <mxCell id="bmH2QS8Xi0sfcgq4WeDn-28" value="w19541048_techSkills" style="text;strokeColor=none;fillColor=none;align=left;verticalAlign=middle;spacingLeft=4;spacingRight=4;overflow=hidden;points=[[0,0.5],[1,0.5]];portConstraint=eastwest;rotatable=0;whiteSpace=wrap;html=1;" vertex="1" parent="bmH2QS8Xi0sfcgq4WeDn-27">
          <mxGeometry y="93.32560000000002" width="295.5188372093024" height="63.32560000000002" as="geometry" />
        </mxCell>
        <mxCell id="bmH2QS8Xi0sfcgq4WeDn-29" value="w19541048_supportStaffFlag" style="text;strokeColor=none;fillColor=none;align=left;verticalAlign=middle;spacingLeft=4;spacingRight=4;overflow=hidden;points=[[0,0.5],[1,0.5]];portConstraint=eastwest;rotatable=0;whiteSpace=wrap;html=1;" vertex="1" parent="bmH2QS8Xi0sfcgq4WeDn-27">
          <mxGeometry y="156.65120000000005" width="295.5188372093024" height="63.32560000000002" as="geometry" />
        </mxCell>
        <mxCell id="bmH2QS8Xi0sfcgq4WeDn-30" value="w19541048_certificationLevel" style="text;strokeColor=none;fillColor=none;align=left;verticalAlign=middle;spacingLeft=4;spacingRight=4;overflow=hidden;points=[[0,0.5],[1,0.5]];portConstraint=eastwest;rotatable=0;whiteSpace=wrap;html=1;" vertex="1" parent="bmH2QS8Xi0sfcgq4WeDn-27">
          <mxGeometry y="219.97680000000008" width="295.5188372093024" height="63.32560000000002" as="geometry" />
        </mxCell>
        <mxCell id="bmH2QS8Xi0sfcgq4WeDn-31" value="w19541048_guideFlag" style="text;strokeColor=none;fillColor=none;align=left;verticalAlign=middle;spacingLeft=4;spacingRight=4;overflow=hidden;points=[[0,0.5],[1,0.5]];portConstraint=eastwest;rotatable=0;whiteSpace=wrap;html=1;" vertex="1" parent="bmH2QS8Xi0sfcgq4WeDn-27">
          <mxGeometry y="283.3024000000001" width="295.5188372093024" height="63.32560000000002" as="geometry" />
        </mxCell>
        <mxCell id="bmH2QS8Xi0sfcgq4WeDn-40" style="edgeStyle=orthogonalEdgeStyle;rounded=0;orthogonalLoop=1;jettySize=auto;html=1;entryX=0;entryY=0.5;entryDx=0;entryDy=0;endArrow=none;endFill=0;jumpStyle=arc;" edge="1" parent="bmH2QS8Xi0sfcgq4WeDn-260" source="bmH2QS8Xi0sfcgq4WeDn-14" target="bmH2QS8Xi0sfcgq4WeDn-29">
          <mxGeometry relative="1" as="geometry" />
        </mxCell>
        <mxCell id="bmH2QS8Xi0sfcgq4WeDn-42" value="can be" style="text;html=1;resizable=0;points=[];;align=center;verticalAlign=middle;labelBackgroundColor=none;rounded=0;shadow=0;strokeWidth=1;fontSize=12;" vertex="1" connectable="0" parent="bmH2QS8Xi0sfcgq4WeDn-260">
          <mxGeometry x="422.1679432515071" y="1952.5479331061733" as="geometry">
            <mxPoint x="4" y="-1" as="offset" />
          </mxGeometry>
        </mxCell>
        <mxCell id="bmH2QS8Xi0sfcgq4WeDn-43" value="" style="triangle;whiteSpace=wrap;html=1;rotation=0;fillStyle=solid;fillColor=#000000;" vertex="1" parent="bmH2QS8Xi0sfcgq4WeDn-260">
          <mxGeometry x="506.60372093023256" y="1941.9850666666669" width="15.831366279069767" height="21.108533333333337" as="geometry" />
        </mxCell>
        <mxCell id="bmH2QS8Xi0sfcgq4WeDn-44" value="1..1" style="text;html=1;align=center;verticalAlign=middle;resizable=0;points=[];autosize=1;strokeColor=none;fillColor=none;" vertex="1" parent="bmH2QS8Xi0sfcgq4WeDn-260">
          <mxGeometry x="126.65093023255814" y="1768.8950933333338" width="40" height="30" as="geometry" />
        </mxCell>
        <mxCell id="bmH2QS8Xi0sfcgq4WeDn-45" value="0..1" style="text;html=1;align=center;verticalAlign=middle;resizable=0;points=[];autosize=1;strokeColor=none;fillColor=none;" vertex="1" parent="bmH2QS8Xi0sfcgq4WeDn-260">
          <mxGeometry x="548.8206976744186" y="2005.310666666667" width="40" height="30" as="geometry" />
        </mxCell>
        <mxCell id="bmH2QS8Xi0sfcgq4WeDn-46" value="w19541048_DrinkTaster" style="swimlane;fontStyle=0;childLayout=stackLayout;horizontal=1;startSize=30;horizontalStack=0;resizeParent=1;resizeParentMax=0;resizeLast=0;collapsible=1;marginBottom=0;whiteSpace=wrap;html=1;" vertex="1" parent="bmH2QS8Xi0sfcgq4WeDn-260">
          <mxGeometry x="2659.669534883721" y="2701.892266666667" width="295.5188372093024" height="409.95360000000005" as="geometry" />
        </mxCell>
        <mxCell id="bmH2QS8Xi0sfcgq4WeDn-47" value="w19541048_tasterCode {PK}&amp;nbsp;" style="text;strokeColor=none;fillColor=none;align=left;verticalAlign=middle;spacingLeft=4;spacingRight=4;overflow=hidden;points=[[0,0.5],[1,0.5]];portConstraint=eastwest;rotatable=0;whiteSpace=wrap;html=1;" vertex="1" parent="bmH2QS8Xi0sfcgq4WeDn-46">
          <mxGeometry y="30" width="295.5188372093024" height="63.32560000000001" as="geometry" />
        </mxCell>
        <mxCell id="bmH2QS8Xi0sfcgq4WeDn-233" value="w19541048_attracNo {FK}&amp;nbsp;" style="text;strokeColor=none;fillColor=none;align=left;verticalAlign=middle;spacingLeft=4;spacingRight=4;overflow=hidden;points=[[0,0.5],[1,0.5]];portConstraint=eastwest;rotatable=0;whiteSpace=wrap;html=1;" vertex="1" parent="bmH2QS8Xi0sfcgq4WeDn-46">
          <mxGeometry y="93.32560000000001" width="295.5188372093024" height="63.32560000000001" as="geometry" />
        </mxCell>
        <mxCell id="bmH2QS8Xi0sfcgq4WeDn-48" value="w19541048_tasterName" style="text;strokeColor=none;fillColor=none;align=left;verticalAlign=middle;spacingLeft=4;spacingRight=4;overflow=hidden;points=[[0,0.5],[1,0.5]];portConstraint=eastwest;rotatable=0;whiteSpace=wrap;html=1;" vertex="1" parent="bmH2QS8Xi0sfcgq4WeDn-46">
          <mxGeometry y="156.65120000000002" width="295.5188372093024" height="63.32560000000001" as="geometry" />
        </mxCell>
        <mxCell id="bmH2QS8Xi0sfcgq4WeDn-49" value="w19541048_tasterDescrip" style="text;strokeColor=none;fillColor=none;align=left;verticalAlign=middle;spacingLeft=4;spacingRight=4;overflow=hidden;points=[[0,0.5],[1,0.5]];portConstraint=eastwest;rotatable=0;whiteSpace=wrap;html=1;" vertex="1" parent="bmH2QS8Xi0sfcgq4WeDn-46">
          <mxGeometry y="219.97680000000003" width="295.5188372093024" height="63.32560000000001" as="geometry" />
        </mxCell>
        <mxCell id="bmH2QS8Xi0sfcgq4WeDn-50" value="w19541048_intoleranceInfo" style="text;strokeColor=none;fillColor=none;align=left;verticalAlign=middle;spacingLeft=4;spacingRight=4;overflow=hidden;points=[[0,0.5],[1,0.5]];portConstraint=eastwest;rotatable=0;whiteSpace=wrap;html=1;" vertex="1" parent="bmH2QS8Xi0sfcgq4WeDn-46">
          <mxGeometry y="283.30240000000003" width="295.5188372093024" height="63.32560000000001" as="geometry" />
        </mxCell>
        <mxCell id="bmH2QS8Xi0sfcgq4WeDn-51" value="w19541048_alcoholContent" style="text;strokeColor=none;fillColor=none;align=left;verticalAlign=middle;spacingLeft=4;spacingRight=4;overflow=hidden;points=[[0,0.5],[1,0.5]];portConstraint=eastwest;rotatable=0;whiteSpace=wrap;html=1;" vertex="1" parent="bmH2QS8Xi0sfcgq4WeDn-46">
          <mxGeometry y="346.62800000000004" width="295.5188372093024" height="63.32560000000001" as="geometry" />
        </mxCell>
        <mxCell id="bmH2QS8Xi0sfcgq4WeDn-52" value="w19541048_FoodTaster" style="swimlane;fontStyle=0;childLayout=stackLayout;horizontal=1;startSize=30;horizontalStack=0;resizeParent=1;resizeParentMax=0;resizeLast=0;collapsible=1;marginBottom=0;whiteSpace=wrap;html=1;" vertex="1" parent="bmH2QS8Xi0sfcgq4WeDn-260">
          <mxGeometry x="3335.1411627906978" y="2701.892266666667" width="295.5188372093024" height="346.6280000000001" as="geometry" />
        </mxCell>
        <mxCell id="bmH2QS8Xi0sfcgq4WeDn-58" value="w19541048_tasterCode {PK}&amp;nbsp;" style="text;strokeColor=none;fillColor=none;align=left;verticalAlign=middle;spacingLeft=4;spacingRight=4;overflow=hidden;points=[[0,0.5],[1,0.5]];portConstraint=eastwest;rotatable=0;whiteSpace=wrap;html=1;" vertex="1" parent="bmH2QS8Xi0sfcgq4WeDn-52">
          <mxGeometry y="30" width="295.5188372093024" height="63.32560000000002" as="geometry" />
        </mxCell>
        <mxCell id="bmH2QS8Xi0sfcgq4WeDn-234" value="w19541048_attracNo {FK}&amp;nbsp;" style="text;strokeColor=none;fillColor=none;align=left;verticalAlign=middle;spacingLeft=4;spacingRight=4;overflow=hidden;points=[[0,0.5],[1,0.5]];portConstraint=eastwest;rotatable=0;whiteSpace=wrap;html=1;" vertex="1" parent="bmH2QS8Xi0sfcgq4WeDn-52">
          <mxGeometry y="93.32560000000002" width="295.5188372093024" height="63.32560000000002" as="geometry" />
        </mxCell>
        <mxCell id="bmH2QS8Xi0sfcgq4WeDn-61" value="w19541048_intoleranceInfo" style="text;strokeColor=none;fillColor=none;align=left;verticalAlign=middle;spacingLeft=4;spacingRight=4;overflow=hidden;points=[[0,0.5],[1,0.5]];portConstraint=eastwest;rotatable=0;whiteSpace=wrap;html=1;" vertex="1" parent="bmH2QS8Xi0sfcgq4WeDn-52">
          <mxGeometry y="156.65120000000005" width="295.5188372093024" height="63.32560000000002" as="geometry" />
        </mxCell>
        <mxCell id="bmH2QS8Xi0sfcgq4WeDn-60" value="w19541048_tasterDescrip" style="text;strokeColor=none;fillColor=none;align=left;verticalAlign=middle;spacingLeft=4;spacingRight=4;overflow=hidden;points=[[0,0.5],[1,0.5]];portConstraint=eastwest;rotatable=0;whiteSpace=wrap;html=1;" vertex="1" parent="bmH2QS8Xi0sfcgq4WeDn-52">
          <mxGeometry y="219.97680000000008" width="295.5188372093024" height="63.32560000000002" as="geometry" />
        </mxCell>
        <mxCell id="bmH2QS8Xi0sfcgq4WeDn-59" value="w19541048_tasterName" style="text;strokeColor=none;fillColor=none;align=left;verticalAlign=middle;spacingLeft=4;spacingRight=4;overflow=hidden;points=[[0,0.5],[1,0.5]];portConstraint=eastwest;rotatable=0;whiteSpace=wrap;html=1;" vertex="1" parent="bmH2QS8Xi0sfcgq4WeDn-52">
          <mxGeometry y="283.3024000000001" width="295.5188372093024" height="63.32560000000002" as="geometry" />
        </mxCell>
        <mxCell id="bmH2QS8Xi0sfcgq4WeDn-62" value="w19541048_LandmarkAttract" style="swimlane;fontStyle=0;childLayout=stackLayout;horizontal=1;startSize=30;horizontalStack=0;resizeParent=1;resizeParentMax=0;resizeLast=0;collapsible=1;marginBottom=0;whiteSpace=wrap;html=1;" vertex="1" parent="bmH2QS8Xi0sfcgq4WeDn-260">
          <mxGeometry x="2258.6082558139533" y="1941.9850666666669" width="295.5188372093024" height="409.95360000000005" as="geometry" />
        </mxCell>
        <mxCell id="bmH2QS8Xi0sfcgq4WeDn-63" value="w19541048_attracNo {PK}&amp;nbsp;" style="text;strokeColor=none;fillColor=none;align=left;verticalAlign=middle;spacingLeft=4;spacingRight=4;overflow=hidden;points=[[0,0.5],[1,0.5]];portConstraint=eastwest;rotatable=0;whiteSpace=wrap;html=1;" vertex="1" parent="bmH2QS8Xi0sfcgq4WeDn-62">
          <mxGeometry y="30" width="295.5188372093024" height="63.32560000000001" as="geometry" />
        </mxCell>
        <mxCell id="bmH2QS8Xi0sfcgq4WeDn-203" value="w19541048_cityCode {FK}&amp;nbsp;" style="text;strokeColor=none;fillColor=none;align=left;verticalAlign=middle;spacingLeft=4;spacingRight=4;overflow=hidden;points=[[0,0.5],[1,0.5]];portConstraint=eastwest;rotatable=0;whiteSpace=wrap;html=1;" vertex="1" parent="bmH2QS8Xi0sfcgq4WeDn-62">
          <mxGeometry y="93.32560000000001" width="295.5188372093024" height="63.32560000000001" as="geometry" />
        </mxCell>
        <mxCell id="bmH2QS8Xi0sfcgq4WeDn-64" value="w19541048_attracName" style="text;strokeColor=none;fillColor=none;align=left;verticalAlign=middle;spacingLeft=4;spacingRight=4;overflow=hidden;points=[[0,0.5],[1,0.5]];portConstraint=eastwest;rotatable=0;whiteSpace=wrap;html=1;" vertex="1" parent="bmH2QS8Xi0sfcgq4WeDn-62">
          <mxGeometry y="156.65120000000002" width="295.5188372093024" height="63.32560000000001" as="geometry" />
        </mxCell>
        <mxCell id="bmH2QS8Xi0sfcgq4WeDn-65" value="w19541048_attracDescrip" style="text;strokeColor=none;fillColor=none;align=left;verticalAlign=middle;spacingLeft=4;spacingRight=4;overflow=hidden;points=[[0,0.5],[1,0.5]];portConstraint=eastwest;rotatable=0;whiteSpace=wrap;html=1;" vertex="1" parent="bmH2QS8Xi0sfcgq4WeDn-62">
          <mxGeometry y="219.97680000000003" width="295.5188372093024" height="63.32560000000001" as="geometry" />
        </mxCell>
        <mxCell id="bmH2QS8Xi0sfcgq4WeDn-66" value="w19541048_attracAddress" style="text;strokeColor=none;fillColor=none;align=left;verticalAlign=middle;spacingLeft=4;spacingRight=4;overflow=hidden;points=[[0,0.5],[1,0.5]];portConstraint=eastwest;rotatable=0;whiteSpace=wrap;html=1;" vertex="1" parent="bmH2QS8Xi0sfcgq4WeDn-62">
          <mxGeometry y="283.30240000000003" width="295.5188372093024" height="63.32560000000001" as="geometry" />
        </mxCell>
        <mxCell id="bmH2QS8Xi0sfcgq4WeDn-67" value="w19541048_attracPostCode" style="text;strokeColor=none;fillColor=none;align=left;verticalAlign=middle;spacingLeft=4;spacingRight=4;overflow=hidden;points=[[0,0.5],[1,0.5]];portConstraint=eastwest;rotatable=0;whiteSpace=wrap;html=1;" vertex="1" parent="bmH2QS8Xi0sfcgq4WeDn-62">
          <mxGeometry y="346.62800000000004" width="295.5188372093024" height="63.32560000000001" as="geometry" />
        </mxCell>
        <mxCell id="bmH2QS8Xi0sfcgq4WeDn-68" value="w19541048_EstablishmentAttract" style="swimlane;fontStyle=0;childLayout=stackLayout;horizontal=1;startSize=30;horizontalStack=0;resizeParent=1;resizeParentMax=0;resizeLast=0;collapsible=1;marginBottom=0;whiteSpace=wrap;html=1;" vertex="1" parent="bmH2QS8Xi0sfcgq4WeDn-260">
          <mxGeometry x="2849.645930232558" y="1920.8765333333336" width="295.5188372093024" height="473.27920000000006" as="geometry" />
        </mxCell>
        <mxCell id="bmH2QS8Xi0sfcgq4WeDn-69" value="w19541048_attracNo {PK}&amp;nbsp;" style="text;strokeColor=none;fillColor=none;align=left;verticalAlign=middle;spacingLeft=4;spacingRight=4;overflow=hidden;points=[[0,0.5],[1,0.5]];portConstraint=eastwest;rotatable=0;whiteSpace=wrap;html=1;" vertex="1" parent="bmH2QS8Xi0sfcgq4WeDn-68">
          <mxGeometry y="30" width="295.5188372093024" height="63.32560000000001" as="geometry" />
        </mxCell>
        <mxCell id="bmH2QS8Xi0sfcgq4WeDn-204" value="w19541048_cityCode {FK}&amp;nbsp;" style="text;strokeColor=none;fillColor=none;align=left;verticalAlign=middle;spacingLeft=4;spacingRight=4;overflow=hidden;points=[[0,0.5],[1,0.5]];portConstraint=eastwest;rotatable=0;whiteSpace=wrap;html=1;" vertex="1" parent="bmH2QS8Xi0sfcgq4WeDn-68">
          <mxGeometry y="93.32560000000001" width="295.5188372093024" height="63.32560000000001" as="geometry" />
        </mxCell>
        <mxCell id="bmH2QS8Xi0sfcgq4WeDn-70" value="w19541048_attracName" style="text;strokeColor=none;fillColor=none;align=left;verticalAlign=middle;spacingLeft=4;spacingRight=4;overflow=hidden;points=[[0,0.5],[1,0.5]];portConstraint=eastwest;rotatable=0;whiteSpace=wrap;html=1;" vertex="1" parent="bmH2QS8Xi0sfcgq4WeDn-68">
          <mxGeometry y="156.65120000000002" width="295.5188372093024" height="63.32560000000001" as="geometry" />
        </mxCell>
        <mxCell id="bmH2QS8Xi0sfcgq4WeDn-71" value="w19541048_attracDescrip" style="text;strokeColor=none;fillColor=none;align=left;verticalAlign=middle;spacingLeft=4;spacingRight=4;overflow=hidden;points=[[0,0.5],[1,0.5]];portConstraint=eastwest;rotatable=0;whiteSpace=wrap;html=1;" vertex="1" parent="bmH2QS8Xi0sfcgq4WeDn-68">
          <mxGeometry y="219.97680000000003" width="295.5188372093024" height="63.32560000000001" as="geometry" />
        </mxCell>
        <mxCell id="bmH2QS8Xi0sfcgq4WeDn-72" value="w19541048_attracAddress" style="text;strokeColor=none;fillColor=none;align=left;verticalAlign=middle;spacingLeft=4;spacingRight=4;overflow=hidden;points=[[0,0.5],[1,0.5]];portConstraint=eastwest;rotatable=0;whiteSpace=wrap;html=1;" vertex="1" parent="bmH2QS8Xi0sfcgq4WeDn-68">
          <mxGeometry y="283.30240000000003" width="295.5188372093024" height="63.32560000000001" as="geometry" />
        </mxCell>
        <mxCell id="bmH2QS8Xi0sfcgq4WeDn-74" value="w19541048_attracPostCode" style="text;strokeColor=none;fillColor=none;align=left;verticalAlign=middle;spacingLeft=4;spacingRight=4;overflow=hidden;points=[[0,0.5],[1,0.5]];portConstraint=eastwest;rotatable=0;whiteSpace=wrap;html=1;" vertex="1" parent="bmH2QS8Xi0sfcgq4WeDn-68">
          <mxGeometry y="346.62800000000004" width="295.5188372093024" height="63.32560000000001" as="geometry" />
        </mxCell>
        <mxCell id="bmH2QS8Xi0sfcgq4WeDn-73" value="w19541048_foodDrinkType" style="text;strokeColor=none;fillColor=none;align=left;verticalAlign=middle;spacingLeft=4;spacingRight=4;overflow=hidden;points=[[0,0.5],[1,0.5]];portConstraint=eastwest;rotatable=0;whiteSpace=wrap;html=1;" vertex="1" parent="bmH2QS8Xi0sfcgq4WeDn-68">
          <mxGeometry y="409.95360000000005" width="295.5188372093024" height="63.32560000000001" as="geometry" />
        </mxCell>
        <mxCell id="bmH2QS8Xi0sfcgq4WeDn-75" value="w19541048_Equipment" style="swimlane;fontStyle=0;childLayout=stackLayout;horizontal=1;startSize=30;horizontalStack=0;resizeParent=1;resizeParentMax=0;resizeLast=0;collapsible=1;marginBottom=0;whiteSpace=wrap;html=1;" vertex="1" parent="bmH2QS8Xi0sfcgq4WeDn-260">
          <mxGeometry x="886.556511627907" y="2406.3728" width="295.5188372093024" height="346.6280000000001" as="geometry" />
        </mxCell>
        <mxCell id="bmH2QS8Xi0sfcgq4WeDn-76" value="w19541048_equipCode {PK}&amp;nbsp;" style="text;strokeColor=none;fillColor=none;align=left;verticalAlign=middle;spacingLeft=4;spacingRight=4;overflow=hidden;points=[[0,0.5],[1,0.5]];portConstraint=eastwest;rotatable=0;whiteSpace=wrap;html=1;" vertex="1" parent="bmH2QS8Xi0sfcgq4WeDn-75">
          <mxGeometry y="30" width="295.5188372093024" height="63.32560000000002" as="geometry" />
        </mxCell>
        <mxCell id="bmH2QS8Xi0sfcgq4WeDn-229" value="w19541048_staffNo {FK}" style="text;strokeColor=none;fillColor=none;align=left;verticalAlign=middle;spacingLeft=4;spacingRight=4;overflow=hidden;points=[[0,0.5],[1,0.5]];portConstraint=eastwest;rotatable=0;whiteSpace=wrap;html=1;" vertex="1" parent="bmH2QS8Xi0sfcgq4WeDn-75">
          <mxGeometry y="93.32560000000002" width="295.5188372093024" height="63.32560000000002" as="geometry" />
        </mxCell>
        <mxCell id="bmH2QS8Xi0sfcgq4WeDn-77" value="w19541048_equipName" style="text;strokeColor=none;fillColor=none;align=left;verticalAlign=middle;spacingLeft=4;spacingRight=4;overflow=hidden;points=[[0,0.5],[1,0.5]];portConstraint=eastwest;rotatable=0;whiteSpace=wrap;html=1;" vertex="1" parent="bmH2QS8Xi0sfcgq4WeDn-75">
          <mxGeometry y="156.65120000000005" width="295.5188372093024" height="63.32560000000002" as="geometry" />
        </mxCell>
        <mxCell id="bmH2QS8Xi0sfcgq4WeDn-78" value="w19541048_equipDescrip" style="text;strokeColor=none;fillColor=none;align=left;verticalAlign=middle;spacingLeft=4;spacingRight=4;overflow=hidden;points=[[0,0.5],[1,0.5]];portConstraint=eastwest;rotatable=0;whiteSpace=wrap;html=1;" vertex="1" parent="bmH2QS8Xi0sfcgq4WeDn-75">
          <mxGeometry y="219.97680000000008" width="295.5188372093024" height="63.32560000000002" as="geometry" />
        </mxCell>
        <mxCell id="bmH2QS8Xi0sfcgq4WeDn-79" value="w19541048_equipCondition" style="text;strokeColor=none;fillColor=none;align=left;verticalAlign=middle;spacingLeft=4;spacingRight=4;overflow=hidden;points=[[0,0.5],[1,0.5]];portConstraint=eastwest;rotatable=0;whiteSpace=wrap;html=1;" vertex="1" parent="bmH2QS8Xi0sfcgq4WeDn-75">
          <mxGeometry y="283.3024000000001" width="295.5188372093024" height="63.32560000000002" as="geometry" />
        </mxCell>
        <mxCell id="bmH2QS8Xi0sfcgq4WeDn-81" value="w19541048_BikeEquip" style="swimlane;fontStyle=0;childLayout=stackLayout;horizontal=1;startSize=30;horizontalStack=0;resizeParent=1;resizeParentMax=0;resizeLast=0;collapsible=1;marginBottom=0;whiteSpace=wrap;html=1;" vertex="1" parent="bmH2QS8Xi0sfcgq4WeDn-260">
          <mxGeometry x="443.2782558139535" y="2912.9776" width="295.5188372093024" height="219.97680000000003" as="geometry" />
        </mxCell>
        <mxCell id="bmH2QS8Xi0sfcgq4WeDn-82" value="w19541048_equipCode {PK} {FK}&amp;nbsp;" style="text;strokeColor=none;fillColor=none;align=left;verticalAlign=middle;spacingLeft=4;spacingRight=4;overflow=hidden;points=[[0,0.5],[1,0.5]];portConstraint=eastwest;rotatable=0;whiteSpace=wrap;html=1;" vertex="1" parent="bmH2QS8Xi0sfcgq4WeDn-81">
          <mxGeometry y="30" width="295.5188372093024" height="63.32560000000001" as="geometry" />
        </mxCell>
        <mxCell id="bmH2QS8Xi0sfcgq4WeDn-83" value="w19541048_bikeType" style="text;strokeColor=none;fillColor=none;align=left;verticalAlign=middle;spacingLeft=4;spacingRight=4;overflow=hidden;points=[[0,0.5],[1,0.5]];portConstraint=eastwest;rotatable=0;whiteSpace=wrap;html=1;" vertex="1" parent="bmH2QS8Xi0sfcgq4WeDn-81">
          <mxGeometry y="93.32560000000001" width="295.5188372093024" height="63.32560000000001" as="geometry" />
        </mxCell>
        <mxCell id="bmH2QS8Xi0sfcgq4WeDn-84" value="w19541048_bikeSize" style="text;strokeColor=none;fillColor=none;align=left;verticalAlign=middle;spacingLeft=4;spacingRight=4;overflow=hidden;points=[[0,0.5],[1,0.5]];portConstraint=eastwest;rotatable=0;whiteSpace=wrap;html=1;" vertex="1" parent="bmH2QS8Xi0sfcgq4WeDn-81">
          <mxGeometry y="156.65120000000002" width="295.5188372093024" height="63.32560000000001" as="geometry" />
        </mxCell>
        <mxCell id="bmH2QS8Xi0sfcgq4WeDn-86" value="w19541048_HelmetEquip" style="swimlane;fontStyle=0;childLayout=stackLayout;horizontal=1;startSize=30;horizontalStack=0;resizeParent=1;resizeParentMax=0;resizeLast=0;collapsible=1;marginBottom=0;whiteSpace=wrap;html=1;" vertex="1" parent="bmH2QS8Xi0sfcgq4WeDn-260">
          <mxGeometry x="1350.9432558139536" y="2944.6404000000007" width="295.5188372093024" height="156.65120000000005" as="geometry" />
        </mxCell>
        <mxCell id="bmH2QS8Xi0sfcgq4WeDn-87" value="w19541048_equipCode {PK} {FK}&amp;nbsp;" style="text;strokeColor=none;fillColor=none;align=left;verticalAlign=middle;spacingLeft=4;spacingRight=4;overflow=hidden;points=[[0,0.5],[1,0.5]];portConstraint=eastwest;rotatable=0;whiteSpace=wrap;html=1;" vertex="1" parent="bmH2QS8Xi0sfcgq4WeDn-86">
          <mxGeometry y="30" width="295.5188372093024" height="63.32560000000002" as="geometry" />
        </mxCell>
        <mxCell id="bmH2QS8Xi0sfcgq4WeDn-88" value="w19541048_helmetSize" style="text;strokeColor=none;fillColor=none;align=left;verticalAlign=middle;spacingLeft=4;spacingRight=4;overflow=hidden;points=[[0,0.5],[1,0.5]];portConstraint=eastwest;rotatable=0;whiteSpace=wrap;html=1;" vertex="1" parent="bmH2QS8Xi0sfcgq4WeDn-86">
          <mxGeometry y="93.32560000000002" width="295.5188372093024" height="63.32560000000002" as="geometry" />
        </mxCell>
        <mxCell id="bmH2QS8Xi0sfcgq4WeDn-90" style="edgeStyle=orthogonalEdgeStyle;rounded=0;orthogonalLoop=1;jettySize=auto;html=1;exitX=0;exitY=0.5;exitDx=0;exitDy=0;entryX=0.5;entryY=0;entryDx=0;entryDy=0;endArrow=none;endFill=0;jumpStyle=arc;" edge="1" parent="bmH2QS8Xi0sfcgq4WeDn-260" source="bmH2QS8Xi0sfcgq4WeDn-77" target="bmH2QS8Xi0sfcgq4WeDn-81">
          <mxGeometry relative="1" as="geometry" />
        </mxCell>
        <mxCell id="bmH2QS8Xi0sfcgq4WeDn-91" style="edgeStyle=orthogonalEdgeStyle;rounded=0;orthogonalLoop=1;jettySize=auto;html=1;exitX=1;exitY=0.5;exitDx=0;exitDy=0;entryX=0.5;entryY=0;entryDx=0;entryDy=0;endArrow=none;endFill=0;jumpStyle=arc;" edge="1" parent="bmH2QS8Xi0sfcgq4WeDn-260" source="bmH2QS8Xi0sfcgq4WeDn-77" target="bmH2QS8Xi0sfcgq4WeDn-86">
          <mxGeometry relative="1" as="geometry" />
        </mxCell>
        <mxCell id="bmH2QS8Xi0sfcgq4WeDn-92" value="can be" style="text;html=1;resizable=0;points=[];;align=center;verticalAlign=middle;labelBackgroundColor=none;rounded=0;shadow=0;strokeWidth=1;fontSize=12;" vertex="1" connectable="0" parent="bmH2QS8Xi0sfcgq4WeDn-260">
          <mxGeometry x="1350.9414316236" y="2602.69075977284" as="geometry">
            <mxPoint x="4" y="-1" as="offset" />
          </mxGeometry>
        </mxCell>
        <mxCell id="bmH2QS8Xi0sfcgq4WeDn-93" value="" style="triangle;whiteSpace=wrap;html=1;rotation=0;fillStyle=solid;fillColor=#000000;" vertex="1" parent="bmH2QS8Xi0sfcgq4WeDn-260">
          <mxGeometry x="1435.3772093023256" y="2592.1278933333338" width="15.831366279069767" height="21.108533333333337" as="geometry" />
        </mxCell>
        <mxCell id="bmH2QS8Xi0sfcgq4WeDn-94" value="can be" style="text;html=1;resizable=0;points=[];;align=center;verticalAlign=middle;labelBackgroundColor=none;rounded=0;shadow=0;strokeWidth=1;fontSize=12;" vertex="1" connectable="0" parent="bmH2QS8Xi0sfcgq4WeDn-260">
          <mxGeometry x="675.4698037166233" y="2581.582226439507" as="geometry">
            <mxPoint x="4" y="-1" as="offset" />
          </mxGeometry>
        </mxCell>
        <mxCell id="bmH2QS8Xi0sfcgq4WeDn-95" value="" style="triangle;whiteSpace=wrap;html=1;rotation=-180;fillStyle=solid;fillColor=#000000;" vertex="1" parent="bmH2QS8Xi0sfcgq4WeDn-260">
          <mxGeometry x="617.423284883721" y="2571.0193600000007" width="15.831366279069767" height="21.108533333333337" as="geometry" />
        </mxCell>
        <mxCell id="bmH2QS8Xi0sfcgq4WeDn-96" value="1..1" style="text;html=1;align=center;verticalAlign=middle;resizable=0;points=[];autosize=1;strokeColor=none;fillColor=none;" vertex="1" parent="bmH2QS8Xi0sfcgq4WeDn-260">
          <mxGeometry x="802.1225581395349" y="2571.0193600000007" width="40" height="30" as="geometry" />
        </mxCell>
        <mxCell id="bmH2QS8Xi0sfcgq4WeDn-97" value="0..1" style="text;html=1;align=center;verticalAlign=middle;resizable=0;points=[];autosize=1;strokeColor=none;fillColor=none;" vertex="1" parent="bmH2QS8Xi0sfcgq4WeDn-260">
          <mxGeometry x="1414.2687209302328" y="2860.206266666667" width="40" height="30" as="geometry" />
        </mxCell>
        <mxCell id="bmH2QS8Xi0sfcgq4WeDn-98" value="0..1" style="text;html=1;align=center;verticalAlign=middle;resizable=0;points=[];autosize=1;strokeColor=none;fillColor=none;" vertex="1" parent="bmH2QS8Xi0sfcgq4WeDn-260">
          <mxGeometry x="617.423284883721" y="2828.543466666667" width="40" height="30" as="geometry" />
        </mxCell>
        <mxCell id="bmH2QS8Xi0sfcgq4WeDn-106" style="edgeStyle=orthogonalEdgeStyle;rounded=0;orthogonalLoop=1;jettySize=auto;html=1;endArrow=none;endFill=0;jumpStyle=arc;" edge="1" parent="bmH2QS8Xi0sfcgq4WeDn-260" source="bmH2QS8Xi0sfcgq4WeDn-99" target="bmH2QS8Xi0sfcgq4WeDn-62">
          <mxGeometry relative="1" as="geometry" />
        </mxCell>
        <mxCell id="bmH2QS8Xi0sfcgq4WeDn-107" style="edgeStyle=orthogonalEdgeStyle;rounded=0;orthogonalLoop=1;jettySize=auto;html=1;entryX=0.5;entryY=0;entryDx=0;entryDy=0;exitX=1;exitY=0.5;exitDx=0;exitDy=0;endArrow=none;endFill=0;jumpStyle=arc;" edge="1" parent="bmH2QS8Xi0sfcgq4WeDn-260" source="bmH2QS8Xi0sfcgq4WeDn-100" target="bmH2QS8Xi0sfcgq4WeDn-68">
          <mxGeometry relative="1" as="geometry" />
        </mxCell>
        <mxCell id="bmH2QS8Xi0sfcgq4WeDn-99" value="w19541048_Tour_Cover_Attract" style="swimlane;fontStyle=0;childLayout=stackLayout;horizontal=1;startSize=30;horizontalStack=0;resizeParent=1;resizeParentMax=0;resizeLast=0;collapsible=1;marginBottom=0;whiteSpace=wrap;html=1;" vertex="1" parent="bmH2QS8Xi0sfcgq4WeDn-260">
          <mxGeometry x="2469.693139534884" y="1160.9693333333335" width="379.95279069767446" height="177.75973333333337" as="geometry" />
        </mxCell>
        <mxCell id="bmH2QS8Xi0sfcgq4WeDn-100" value="(w19541048_tourSessionNo {FK}&lt;br&gt;w19541048_attracNo {FK}&lt;br&gt;w19541048_attractArrivalDateTime) {PK}&amp;nbsp;" style="text;strokeColor=none;fillColor=none;align=left;verticalAlign=middle;spacingLeft=4;spacingRight=4;overflow=hidden;points=[[0,0.5],[1,0.5]];portConstraint=eastwest;rotatable=0;whiteSpace=wrap;html=1;" vertex="1" parent="bmH2QS8Xi0sfcgq4WeDn-99">
          <mxGeometry y="30" width="379.95279069767446" height="147.75973333333337" as="geometry" />
        </mxCell>
        <mxCell id="bmH2QS8Xi0sfcgq4WeDn-105" style="edgeStyle=orthogonalEdgeStyle;rounded=0;orthogonalLoop=1;jettySize=auto;html=1;entryX=1;entryY=0.5;entryDx=0;entryDy=0;endArrow=none;endFill=0;jumpStyle=arc;" edge="1" parent="bmH2QS8Xi0sfcgq4WeDn-260" source="bmH2QS8Xi0sfcgq4WeDn-100" target="bmH2QS8Xi0sfcgq4WeDn-7">
          <mxGeometry relative="1" as="geometry">
            <Array as="points">
              <mxPoint x="2174.1743023255813" y="1298.1748" />
              <mxPoint x="2174.1743023255813" y="1509.2601333333334" />
            </Array>
          </mxGeometry>
        </mxCell>
        <mxCell id="bmH2QS8Xi0sfcgq4WeDn-108" value="is for" style="text;html=1;resizable=0;points=[];;align=center;verticalAlign=middle;labelBackgroundColor=none;rounded=0;shadow=0;strokeWidth=1;fontSize=12;" vertex="1" connectable="0" parent="bmH2QS8Xi0sfcgq4WeDn-260">
          <mxGeometry x="2274.43779790267" y="1255.9663331061734" as="geometry">
            <mxPoint x="4" y="-1" as="offset" />
          </mxGeometry>
        </mxCell>
        <mxCell id="bmH2QS8Xi0sfcgq4WeDn-109" value="" style="triangle;whiteSpace=wrap;html=1;rotation=-180;fillStyle=solid;fillColor=#000000;" vertex="1" parent="bmH2QS8Xi0sfcgq4WeDn-260">
          <mxGeometry x="2216.3912790697673" y="1245.4034666666669" width="15.831366279069767" height="21.108533333333337" as="geometry" />
        </mxCell>
        <mxCell id="bmH2QS8Xi0sfcgq4WeDn-110" value="is for" style="text;html=1;resizable=0;points=[];;align=center;verticalAlign=middle;labelBackgroundColor=none;rounded=0;shadow=0;strokeWidth=1;fontSize=12;" vertex="1" connectable="0" parent="bmH2QS8Xi0sfcgq4WeDn-260">
          <mxGeometry x="2992.1264025538326" y="1234.8577997728398" as="geometry">
            <mxPoint x="2" as="offset" />
          </mxGeometry>
        </mxCell>
        <mxCell id="bmH2QS8Xi0sfcgq4WeDn-111" value="" style="triangle;whiteSpace=wrap;html=1;rotation=0;fillStyle=solid;fillColor=#000000;" vertex="1" parent="bmH2QS8Xi0sfcgq4WeDn-260">
          <mxGeometry x="3060.730813953488" y="1224.2949333333336" width="15.831366279069767" height="21.108533333333337" as="geometry" />
        </mxCell>
        <mxCell id="bmH2QS8Xi0sfcgq4WeDn-112" value="is for" style="text;html=1;resizable=0;points=[];;align=center;verticalAlign=middle;labelBackgroundColor=none;rounded=0;shadow=0;strokeWidth=1;fontSize=12;" vertex="1" connectable="0" parent="bmH2QS8Xi0sfcgq4WeDn-260">
          <mxGeometry x="2554.1252688329023" y="1614.8113997728399" as="geometry">
            <mxPoint x="4" y="-1" as="offset" />
          </mxGeometry>
        </mxCell>
        <mxCell id="bmH2QS8Xi0sfcgq4WeDn-113" value="" style="triangle;whiteSpace=wrap;html=1;rotation=-180;fillStyle=solid;fillColor=#000000;" vertex="1" parent="bmH2QS8Xi0sfcgq4WeDn-260">
          <mxGeometry x="2496.07875" y="1604.2485333333334" width="15.831366279069767" height="21.108533333333337" as="geometry" />
        </mxCell>
        <mxCell id="bmH2QS8Xi0sfcgq4WeDn-114" value="1..1" style="text;html=1;align=center;verticalAlign=middle;resizable=0;points=[];autosize=1;strokeColor=none;fillColor=none;" vertex="1" parent="bmH2QS8Xi0sfcgq4WeDn-260">
          <mxGeometry x="1625.3536046511629" y="1414.2717333333335" width="40" height="30" as="geometry" />
        </mxCell>
        <mxCell id="bmH2QS8Xi0sfcgq4WeDn-115" value="1..1" style="text;html=1;align=center;verticalAlign=middle;resizable=0;points=[];autosize=1;strokeColor=none;fillColor=none;" vertex="1" parent="bmH2QS8Xi0sfcgq4WeDn-260">
          <mxGeometry x="2300.8252325581398" y="1857.5509333333337" width="40" height="30" as="geometry" />
        </mxCell>
        <mxCell id="bmH2QS8Xi0sfcgq4WeDn-116" value="1..1" style="text;html=1;align=center;verticalAlign=middle;resizable=0;points=[];autosize=1;strokeColor=none;fillColor=none;" vertex="1" parent="bmH2QS8Xi0sfcgq4WeDn-260">
          <mxGeometry x="3018.513837209302" y="1832.2206933333334" width="40" height="30" as="geometry" />
        </mxCell>
        <mxCell id="bmH2QS8Xi0sfcgq4WeDn-117" value="0..*" style="text;html=1;align=center;verticalAlign=middle;resizable=0;points=[];autosize=1;strokeColor=none;fillColor=none;" vertex="1" parent="bmH2QS8Xi0sfcgq4WeDn-260">
          <mxGeometry x="2849.645930232558" y="1325.6158933333334" width="40" height="30" as="geometry" />
        </mxCell>
        <mxCell id="bmH2QS8Xi0sfcgq4WeDn-118" value="0..*" style="text;html=1;align=center;verticalAlign=middle;resizable=0;points=[];autosize=1;strokeColor=none;fillColor=none;" vertex="1" parent="bmH2QS8Xi0sfcgq4WeDn-260">
          <mxGeometry x="2533.0186046511626" y="1388.9414933333337" width="40" height="30" as="geometry" />
        </mxCell>
        <mxCell id="bmH2QS8Xi0sfcgq4WeDn-119" value="8..*" style="text;html=1;align=center;verticalAlign=middle;resizable=0;points=[];autosize=1;strokeColor=none;fillColor=none;" vertex="1" parent="bmH2QS8Xi0sfcgq4WeDn-260">
          <mxGeometry x="2364.150697674419" y="1224.2949333333336" width="40" height="30" as="geometry" />
        </mxCell>
        <mxCell id="bmH2QS8Xi0sfcgq4WeDn-120" value="w19541048_Customer" style="swimlane;fontStyle=0;childLayout=stackLayout;horizontal=1;startSize=30;horizontalStack=0;resizeParent=1;resizeParentMax=0;resizeLast=0;collapsible=1;marginBottom=0;whiteSpace=wrap;html=1;" vertex="1" parent="bmH2QS8Xi0sfcgq4WeDn-260">
          <mxGeometry y="358.84506666666675" width="295.5188372093024" height="409.95360000000005" as="geometry" />
        </mxCell>
        <mxCell id="bmH2QS8Xi0sfcgq4WeDn-121" value="w19541048_custId {PK}&amp;nbsp;" style="text;strokeColor=none;fillColor=none;align=left;verticalAlign=middle;spacingLeft=4;spacingRight=4;overflow=hidden;points=[[0,0.5],[1,0.5]];portConstraint=eastwest;rotatable=0;whiteSpace=wrap;html=1;" vertex="1" parent="bmH2QS8Xi0sfcgq4WeDn-120">
          <mxGeometry y="30" width="295.5188372093024" height="63.32560000000001" as="geometry" />
        </mxCell>
        <mxCell id="bmH2QS8Xi0sfcgq4WeDn-122" value="w19541048_custFullName" style="text;strokeColor=none;fillColor=none;align=left;verticalAlign=middle;spacingLeft=4;spacingRight=4;overflow=hidden;points=[[0,0.5],[1,0.5]];portConstraint=eastwest;rotatable=0;whiteSpace=wrap;html=1;" vertex="1" parent="bmH2QS8Xi0sfcgq4WeDn-120">
          <mxGeometry y="93.32560000000001" width="295.5188372093024" height="63.32560000000001" as="geometry" />
        </mxCell>
        <mxCell id="bmH2QS8Xi0sfcgq4WeDn-123" value="w19541048_custMobNo" style="text;strokeColor=none;fillColor=none;align=left;verticalAlign=middle;spacingLeft=4;spacingRight=4;overflow=hidden;points=[[0,0.5],[1,0.5]];portConstraint=eastwest;rotatable=0;whiteSpace=wrap;html=1;" vertex="1" parent="bmH2QS8Xi0sfcgq4WeDn-120">
          <mxGeometry y="156.65120000000002" width="295.5188372093024" height="63.32560000000001" as="geometry" />
        </mxCell>
        <mxCell id="bmH2QS8Xi0sfcgq4WeDn-124" value="w19541048_custEmail" style="text;strokeColor=none;fillColor=none;align=left;verticalAlign=middle;spacingLeft=4;spacingRight=4;overflow=hidden;points=[[0,0.5],[1,0.5]];portConstraint=eastwest;rotatable=0;whiteSpace=wrap;html=1;" vertex="1" parent="bmH2QS8Xi0sfcgq4WeDn-120">
          <mxGeometry y="219.97680000000003" width="295.5188372093024" height="63.32560000000001" as="geometry" />
        </mxCell>
        <mxCell id="bmH2QS8Xi0sfcgq4WeDn-125" value="w19541048_custDietaryRequ" style="text;strokeColor=none;fillColor=none;align=left;verticalAlign=middle;spacingLeft=4;spacingRight=4;overflow=hidden;points=[[0,0.5],[1,0.5]];portConstraint=eastwest;rotatable=0;whiteSpace=wrap;html=1;" vertex="1" parent="bmH2QS8Xi0sfcgq4WeDn-120">
          <mxGeometry y="283.30240000000003" width="295.5188372093024" height="63.32560000000001" as="geometry" />
        </mxCell>
        <mxCell id="bmH2QS8Xi0sfcgq4WeDn-138" value="w19541048_custCyclingProficiency" style="text;strokeColor=none;fillColor=none;align=left;verticalAlign=middle;spacingLeft=4;spacingRight=4;overflow=hidden;points=[[0,0.5],[1,0.5]];portConstraint=eastwest;rotatable=0;whiteSpace=wrap;html=1;" vertex="1" parent="bmH2QS8Xi0sfcgq4WeDn-120">
          <mxGeometry y="346.62800000000004" width="295.5188372093024" height="63.32560000000001" as="geometry" />
        </mxCell>
        <mxCell id="bmH2QS8Xi0sfcgq4WeDn-168" style="edgeStyle=orthogonalEdgeStyle;rounded=0;orthogonalLoop=1;jettySize=auto;html=1;entryX=0.5;entryY=0;entryDx=0;entryDy=0;endArrow=none;endFill=0;jumpStyle=arc;" edge="1" parent="bmH2QS8Xi0sfcgq4WeDn-260" source="bmH2QS8Xi0sfcgq4WeDn-126" target="bmH2QS8Xi0sfcgq4WeDn-1">
          <mxGeometry relative="1" as="geometry" />
        </mxCell>
        <mxCell id="bmH2QS8Xi0sfcgq4WeDn-126" value="w19541048_Booking" style="swimlane;fontStyle=0;childLayout=stackLayout;horizontal=1;startSize=30;horizontalStack=0;resizeParent=1;resizeParentMax=0;resizeLast=0;collapsible=1;marginBottom=0;whiteSpace=wrap;html=1;" vertex="1" parent="bmH2QS8Xi0sfcgq4WeDn-260">
          <mxGeometry x="1182.0753488372095" y="358.84506666666675" width="295.5188372093024" height="473.27920000000006" as="geometry" />
        </mxCell>
        <mxCell id="bmH2QS8Xi0sfcgq4WeDn-127" value="w19541048_bookingRefNo {PK}&amp;nbsp;" style="text;strokeColor=none;fillColor=none;align=left;verticalAlign=middle;spacingLeft=4;spacingRight=4;overflow=hidden;points=[[0,0.5],[1,0.5]];portConstraint=eastwest;rotatable=0;whiteSpace=wrap;html=1;" vertex="1" parent="bmH2QS8Xi0sfcgq4WeDn-126">
          <mxGeometry y="30" width="295.5188372093024" height="63.32560000000001" as="geometry" />
        </mxCell>
        <mxCell id="bmH2QS8Xi0sfcgq4WeDn-128" value="w19541048_bookingDateTime" style="text;strokeColor=none;fillColor=none;align=left;verticalAlign=middle;spacingLeft=4;spacingRight=4;overflow=hidden;points=[[0,0.5],[1,0.5]];portConstraint=eastwest;rotatable=0;whiteSpace=wrap;html=1;" vertex="1" parent="bmH2QS8Xi0sfcgq4WeDn-126">
          <mxGeometry y="93.32560000000001" width="295.5188372093024" height="63.32560000000001" as="geometry" />
        </mxCell>
        <mxCell id="bmH2QS8Xi0sfcgq4WeDn-129" value="w19541048_numberPeople" style="text;strokeColor=none;fillColor=none;align=left;verticalAlign=middle;spacingLeft=4;spacingRight=4;overflow=hidden;points=[[0,0.5],[1,0.5]];portConstraint=eastwest;rotatable=0;whiteSpace=wrap;html=1;" vertex="1" parent="bmH2QS8Xi0sfcgq4WeDn-126">
          <mxGeometry y="156.65120000000002" width="295.5188372093024" height="63.32560000000001" as="geometry" />
        </mxCell>
        <mxCell id="bmH2QS8Xi0sfcgq4WeDn-130" value="w19541048_bookingTotal" style="text;strokeColor=none;fillColor=none;align=left;verticalAlign=middle;spacingLeft=4;spacingRight=4;overflow=hidden;points=[[0,0.5],[1,0.5]];portConstraint=eastwest;rotatable=0;whiteSpace=wrap;html=1;" vertex="1" parent="bmH2QS8Xi0sfcgq4WeDn-126">
          <mxGeometry y="219.97680000000003" width="295.5188372093024" height="63.32560000000001" as="geometry" />
        </mxCell>
        <mxCell id="bmH2QS8Xi0sfcgq4WeDn-131" value="w19541048_paymentStatus" style="text;strokeColor=none;fillColor=none;align=left;verticalAlign=middle;spacingLeft=4;spacingRight=4;overflow=hidden;points=[[0,0.5],[1,0.5]];portConstraint=eastwest;rotatable=0;whiteSpace=wrap;html=1;" vertex="1" parent="bmH2QS8Xi0sfcgq4WeDn-126">
          <mxGeometry y="283.30240000000003" width="295.5188372093024" height="63.32560000000001" as="geometry" />
        </mxCell>
        <mxCell id="bmH2QS8Xi0sfcgq4WeDn-139" value="w19541048_bookingAttendance" style="text;strokeColor=none;fillColor=none;align=left;verticalAlign=middle;spacingLeft=4;spacingRight=4;overflow=hidden;points=[[0,0.5],[1,0.5]];portConstraint=eastwest;rotatable=0;whiteSpace=wrap;html=1;" vertex="1" parent="bmH2QS8Xi0sfcgq4WeDn-126">
          <mxGeometry y="346.62800000000004" width="295.5188372093024" height="63.32560000000001" as="geometry" />
        </mxCell>
        <mxCell id="bmH2QS8Xi0sfcgq4WeDn-173" value="w19541048_tourSessionNo {FK}" style="text;strokeColor=none;fillColor=none;align=left;verticalAlign=middle;spacingLeft=4;spacingRight=4;overflow=hidden;points=[[0,0.5],[1,0.5]];portConstraint=eastwest;rotatable=0;whiteSpace=wrap;html=1;" vertex="1" parent="bmH2QS8Xi0sfcgq4WeDn-126">
          <mxGeometry y="409.95360000000005" width="295.5188372093024" height="63.32560000000001" as="geometry" />
        </mxCell>
        <mxCell id="bmH2QS8Xi0sfcgq4WeDn-132" value="w19541048_Customer_Places_Booking" style="swimlane;fontStyle=0;childLayout=stackLayout;horizontal=1;startSize=30;horizontalStack=0;resizeParent=1;resizeParentMax=0;resizeLast=0;collapsible=1;marginBottom=0;whiteSpace=wrap;html=1;" vertex="1" parent="bmH2QS8Xi0sfcgq4WeDn-260">
          <mxGeometry x="591.0376744186048" width="337.7358139534884" height="219.97680000000003" as="geometry" />
        </mxCell>
        <mxCell id="bmH2QS8Xi0sfcgq4WeDn-133" value="(w19541048_custId {FK}" style="text;strokeColor=none;fillColor=none;align=left;verticalAlign=middle;spacingLeft=4;spacingRight=4;overflow=hidden;points=[[0,0.5],[1,0.5]];portConstraint=eastwest;rotatable=0;whiteSpace=wrap;html=1;" vertex="1" parent="bmH2QS8Xi0sfcgq4WeDn-132">
          <mxGeometry y="30" width="337.7358139534884" height="63.32560000000001" as="geometry" />
        </mxCell>
        <mxCell id="bmH2QS8Xi0sfcgq4WeDn-134" value="w19541048_bookingRefNo {FK}" style="text;strokeColor=none;fillColor=none;align=left;verticalAlign=middle;spacingLeft=4;spacingRight=4;overflow=hidden;points=[[0,0.5],[1,0.5]];portConstraint=eastwest;rotatable=0;whiteSpace=wrap;html=1;" vertex="1" parent="bmH2QS8Xi0sfcgq4WeDn-132">
          <mxGeometry y="93.32560000000001" width="337.7358139534884" height="63.32560000000001" as="geometry" />
        </mxCell>
        <mxCell id="bmH2QS8Xi0sfcgq4WeDn-135" value="w19541048_bookingPlacedTime ) {PK}" style="text;strokeColor=none;fillColor=none;align=left;verticalAlign=middle;spacingLeft=4;spacingRight=4;overflow=hidden;points=[[0,0.5],[1,0.5]];portConstraint=eastwest;rotatable=0;whiteSpace=wrap;html=1;" vertex="1" parent="bmH2QS8Xi0sfcgq4WeDn-132">
          <mxGeometry y="156.65120000000002" width="337.7358139534884" height="63.32560000000001" as="geometry" />
        </mxCell>
        <mxCell id="bmH2QS8Xi0sfcgq4WeDn-140" style="edgeStyle=orthogonalEdgeStyle;rounded=0;orthogonalLoop=1;jettySize=auto;html=1;exitX=0;exitY=0.5;exitDx=0;exitDy=0;entryX=0.5;entryY=0;entryDx=0;entryDy=0;endArrow=none;endFill=0;jumpStyle=arc;" edge="1" parent="bmH2QS8Xi0sfcgq4WeDn-260" source="bmH2QS8Xi0sfcgq4WeDn-134" target="bmH2QS8Xi0sfcgq4WeDn-120">
          <mxGeometry relative="1" as="geometry" />
        </mxCell>
        <mxCell id="bmH2QS8Xi0sfcgq4WeDn-141" style="edgeStyle=orthogonalEdgeStyle;rounded=0;orthogonalLoop=1;jettySize=auto;html=1;exitX=1;exitY=0.5;exitDx=0;exitDy=0;endArrow=none;endFill=0;jumpStyle=arc;" edge="1" parent="bmH2QS8Xi0sfcgq4WeDn-260" source="bmH2QS8Xi0sfcgq4WeDn-134" target="bmH2QS8Xi0sfcgq4WeDn-126">
          <mxGeometry relative="1" as="geometry" />
        </mxCell>
        <mxCell id="bmH2QS8Xi0sfcgq4WeDn-142" value="0..*" style="text;html=1;align=center;verticalAlign=middle;resizable=0;points=[];autosize=1;strokeColor=none;fillColor=none;" vertex="1" parent="bmH2QS8Xi0sfcgq4WeDn-260">
          <mxGeometry x="485.49523255813955" y="80.21242666666667" width="40" height="30" as="geometry" />
        </mxCell>
        <mxCell id="bmH2QS8Xi0sfcgq4WeDn-143" value="1..*" style="text;html=1;align=center;verticalAlign=middle;resizable=0;points=[];autosize=1;strokeColor=none;fillColor=none;" vertex="1" parent="bmH2QS8Xi0sfcgq4WeDn-260">
          <mxGeometry x="949.8819767441861" y="80.21242666666667" width="40" height="30" as="geometry" />
        </mxCell>
        <mxCell id="bmH2QS8Xi0sfcgq4WeDn-144" value="1..1" style="text;html=1;align=center;verticalAlign=middle;resizable=0;points=[];autosize=1;strokeColor=none;fillColor=none;" vertex="1" parent="bmH2QS8Xi0sfcgq4WeDn-260">
          <mxGeometry x="42.21697674418605" y="295.51946666666674" width="40" height="30" as="geometry" />
        </mxCell>
        <mxCell id="bmH2QS8Xi0sfcgq4WeDn-145" value="1..1" style="text;html=1;align=center;verticalAlign=middle;resizable=0;points=[];autosize=1;strokeColor=none;fillColor=none;" vertex="1" parent="bmH2QS8Xi0sfcgq4WeDn-260">
          <mxGeometry x="1350.9432558139536" y="295.51946666666674" width="40" height="30" as="geometry" />
        </mxCell>
        <mxCell id="bmH2QS8Xi0sfcgq4WeDn-146" value="is for" style="text;html=1;resizable=0;points=[];;align=center;verticalAlign=middle;labelBackgroundColor=none;rounded=0;shadow=0;strokeWidth=1;fontSize=12;" vertex="1" connectable="0" parent="bmH2QS8Xi0sfcgq4WeDn-260">
          <mxGeometry x="353.56535604220477" y="80.22102643950645" as="geometry">
            <mxPoint x="4" y="-1" as="offset" />
          </mxGeometry>
        </mxCell>
        <mxCell id="bmH2QS8Xi0sfcgq4WeDn-147" value="" style="triangle;whiteSpace=wrap;html=1;rotation=-180;fillStyle=solid;fillColor=#000000;" vertex="1" parent="bmH2QS8Xi0sfcgq4WeDn-260">
          <mxGeometry x="295.5188372093024" y="69.65816000000001" width="15.831366279069767" height="21.108533333333337" as="geometry" />
        </mxCell>
        <mxCell id="bmH2QS8Xi0sfcgq4WeDn-148" value="is for" style="text;html=1;resizable=0;points=[];;align=center;verticalAlign=middle;labelBackgroundColor=none;rounded=0;shadow=0;strokeWidth=1;fontSize=12;" vertex="1" connectable="0" parent="bmH2QS8Xi0sfcgq4WeDn-260">
          <mxGeometry x="1166.2421583677863" y="111.88382643950645" as="geometry">
            <mxPoint x="2" as="offset" />
          </mxGeometry>
        </mxCell>
        <mxCell id="bmH2QS8Xi0sfcgq4WeDn-149" value="" style="triangle;whiteSpace=wrap;html=1;rotation=0;fillStyle=solid;fillColor=#000000;" vertex="1" parent="bmH2QS8Xi0sfcgq4WeDn-260">
          <mxGeometry x="1234.846569767442" y="101.32096000000001" width="15.831366279069767" height="21.108533333333337" as="geometry" />
        </mxCell>
        <mxCell id="bmH2QS8Xi0sfcgq4WeDn-155" style="edgeStyle=orthogonalEdgeStyle;rounded=0;orthogonalLoop=1;jettySize=auto;html=1;endArrow=none;endFill=0;jumpStyle=arc;" edge="1" parent="bmH2QS8Xi0sfcgq4WeDn-260" source="bmH2QS8Xi0sfcgq4WeDn-150" target="bmH2QS8Xi0sfcgq4WeDn-75">
          <mxGeometry relative="1" as="geometry" />
        </mxCell>
        <mxCell id="bmH2QS8Xi0sfcgq4WeDn-150" value="w19541048_Cycle_Req_Equipment" style="swimlane;fontStyle=0;childLayout=stackLayout;horizontal=1;startSize=30;horizontalStack=0;resizeParent=1;resizeParentMax=0;resizeLast=0;collapsible=1;marginBottom=0;whiteSpace=wrap;html=1;" vertex="1" parent="bmH2QS8Xi0sfcgq4WeDn-260">
          <mxGeometry x="1456.4856976744186" y="2089.7448000000004" width="337.7358139534884" height="219.97680000000003" as="geometry" />
        </mxCell>
        <mxCell id="bmH2QS8Xi0sfcgq4WeDn-151" value="(w19541048_equipCode {FK}&amp;nbsp;" style="text;strokeColor=none;fillColor=none;align=left;verticalAlign=middle;spacingLeft=4;spacingRight=4;overflow=hidden;points=[[0,0.5],[1,0.5]];portConstraint=eastwest;rotatable=0;whiteSpace=wrap;html=1;" vertex="1" parent="bmH2QS8Xi0sfcgq4WeDn-150">
          <mxGeometry y="30" width="337.7358139534884" height="63.32560000000001" as="geometry" />
        </mxCell>
        <mxCell id="bmH2QS8Xi0sfcgq4WeDn-152" value="w19541048_tourSessionNo {FK}" style="text;strokeColor=none;fillColor=none;align=left;verticalAlign=middle;spacingLeft=4;spacingRight=4;overflow=hidden;points=[[0,0.5],[1,0.5]];portConstraint=eastwest;rotatable=0;whiteSpace=wrap;html=1;" vertex="1" parent="bmH2QS8Xi0sfcgq4WeDn-150">
          <mxGeometry y="93.32560000000001" width="337.7358139534884" height="63.32560000000001" as="geometry" />
        </mxCell>
        <mxCell id="bmH2QS8Xi0sfcgq4WeDn-153" value="w19541048_cycleReqEquipment ) {PK}" style="text;strokeColor=none;fillColor=none;align=left;verticalAlign=middle;spacingLeft=4;spacingRight=4;overflow=hidden;points=[[0,0.5],[1,0.5]];portConstraint=eastwest;rotatable=0;whiteSpace=wrap;html=1;" vertex="1" parent="bmH2QS8Xi0sfcgq4WeDn-150">
          <mxGeometry y="156.65120000000002" width="337.7358139534884" height="63.32560000000001" as="geometry" />
        </mxCell>
        <mxCell id="bmH2QS8Xi0sfcgq4WeDn-156" style="edgeStyle=orthogonalEdgeStyle;rounded=0;orthogonalLoop=1;jettySize=auto;html=1;exitX=0.5;exitY=0;exitDx=0;exitDy=0;entryX=0.532;entryY=0.999;entryDx=0;entryDy=0;entryPerimeter=0;endArrow=none;endFill=0;jumpStyle=arc;" edge="1" parent="bmH2QS8Xi0sfcgq4WeDn-260" source="bmH2QS8Xi0sfcgq4WeDn-150" target="bmH2QS8Xi0sfcgq4WeDn-4">
          <mxGeometry relative="1" as="geometry" />
        </mxCell>
        <mxCell id="bmH2QS8Xi0sfcgq4WeDn-157" value="0..*" style="text;html=1;align=center;verticalAlign=middle;resizable=0;points=[];autosize=1;strokeColor=none;fillColor=none;" vertex="1" parent="bmH2QS8Xi0sfcgq4WeDn-260">
          <mxGeometry x="1350.9432558139536" y="2212.1742933333335" width="40" height="30" as="geometry" />
        </mxCell>
        <mxCell id="bmH2QS8Xi0sfcgq4WeDn-158" value="0..*" style="text;html=1;align=center;verticalAlign=middle;resizable=0;points=[];autosize=1;strokeColor=none;fillColor=none;" vertex="1" parent="bmH2QS8Xi0sfcgq4WeDn-260">
          <mxGeometry x="1625.3536046511629" y="2026.4192000000003" width="40" height="30" as="geometry" />
        </mxCell>
        <mxCell id="bmH2QS8Xi0sfcgq4WeDn-159" value="1..1" style="text;html=1;align=center;verticalAlign=middle;resizable=0;points=[];autosize=1;strokeColor=none;fillColor=none;" vertex="1" parent="bmH2QS8Xi0sfcgq4WeDn-260">
          <mxGeometry x="1350.9432558139536" y="2005.310666666667" width="40" height="30" as="geometry" />
        </mxCell>
        <mxCell id="bmH2QS8Xi0sfcgq4WeDn-160" value="1..1" style="text;html=1;align=center;verticalAlign=middle;resizable=0;points=[];autosize=1;strokeColor=none;fillColor=none;" vertex="1" parent="bmH2QS8Xi0sfcgq4WeDn-260">
          <mxGeometry x="928.7734883720931" y="2321.938666666667" width="40" height="30" as="geometry" />
        </mxCell>
        <mxCell id="bmH2QS8Xi0sfcgq4WeDn-164" value="is for" style="text;html=1;resizable=0;points=[];;align=center;verticalAlign=middle;labelBackgroundColor=none;rounded=0;shadow=0;strokeWidth=1;fontSize=12;" vertex="1" connectable="0" parent="bmH2QS8Xi0sfcgq4WeDn-260">
          <mxGeometry x="1250.676111856158" y="2184.7417997728403" as="geometry">
            <mxPoint x="4" y="-1" as="offset" />
          </mxGeometry>
        </mxCell>
        <mxCell id="bmH2QS8Xi0sfcgq4WeDn-165" value="" style="triangle;whiteSpace=wrap;html=1;rotation=-180;fillStyle=solid;fillColor=#000000;" vertex="1" parent="bmH2QS8Xi0sfcgq4WeDn-260">
          <mxGeometry x="1192.6295930232557" y="2174.1789333333336" width="15.831366279069767" height="21.108533333333337" as="geometry" />
        </mxCell>
        <mxCell id="bmH2QS8Xi0sfcgq4WeDn-166" value="is for" style="text;html=1;resizable=0;points=[];;align=center;verticalAlign=middle;labelBackgroundColor=none;rounded=0;shadow=0;strokeWidth=1;fontSize=12;" vertex="1" connectable="0" parent="bmH2QS8Xi0sfcgq4WeDn-260">
          <mxGeometry x="1556.749193251507" y="2028.5386531061733" as="geometry">
            <mxPoint x="4" y="-1" as="offset" />
          </mxGeometry>
        </mxCell>
        <mxCell id="bmH2QS8Xi0sfcgq4WeDn-167" value="" style="triangle;whiteSpace=wrap;html=1;rotation=-180;fillStyle=solid;fillColor=#000000;" vertex="1" parent="bmH2QS8Xi0sfcgq4WeDn-260">
          <mxGeometry x="1498.7026744186046" y="2017.9757866666666" width="15.831366279069767" height="21.108533333333337" as="geometry" />
        </mxCell>
        <mxCell id="bmH2QS8Xi0sfcgq4WeDn-169" value="is for" style="text;html=1;resizable=0;points=[];;align=center;verticalAlign=middle;labelBackgroundColor=none;rounded=0;shadow=0;strokeWidth=1;fontSize=12;" vertex="1" connectable="0" parent="bmH2QS8Xi0sfcgq4WeDn-260">
          <mxGeometry x="1372.049919995693" y="907.6755331061732" as="geometry">
            <mxPoint x="1" y="13" as="offset" />
          </mxGeometry>
        </mxCell>
        <mxCell id="bmH2QS8Xi0sfcgq4WeDn-170" value="" style="triangle;whiteSpace=wrap;html=1;rotation=0;fillStyle=solid;fillColor=#000000;" vertex="1" parent="bmH2QS8Xi0sfcgq4WeDn-260">
          <mxGeometry x="1440.654331395349" y="928.7754666666668" width="15.831366279069767" height="21.108533333333337" as="geometry" />
        </mxCell>
        <mxCell id="bmH2QS8Xi0sfcgq4WeDn-171" value="0..*" style="text;html=1;align=center;verticalAlign=middle;resizable=0;points=[];autosize=1;strokeColor=none;fillColor=none;" vertex="1" parent="bmH2QS8Xi0sfcgq4WeDn-260">
          <mxGeometry x="1234.846569767442" y="865.4498666666667" width="40" height="30" as="geometry" />
        </mxCell>
        <mxCell id="bmH2QS8Xi0sfcgq4WeDn-172" value="1..1" style="text;html=1;align=center;verticalAlign=middle;resizable=0;points=[];autosize=1;strokeColor=none;fillColor=none;" vertex="1" parent="bmH2QS8Xi0sfcgq4WeDn-260">
          <mxGeometry x="1477.5941860465116" y="992.1010666666667" width="40" height="30" as="geometry" />
        </mxCell>
        <mxCell id="bmH2QS8Xi0sfcgq4WeDn-182" style="edgeStyle=orthogonalEdgeStyle;rounded=0;orthogonalLoop=1;jettySize=auto;html=1;entryX=1;entryY=0.5;entryDx=0;entryDy=0;endArrow=none;endFill=0;jumpStyle=arc;" edge="1" parent="bmH2QS8Xi0sfcgq4WeDn-260" source="bmH2QS8Xi0sfcgq4WeDn-174" target="bmH2QS8Xi0sfcgq4WeDn-3">
          <mxGeometry relative="1" as="geometry" />
        </mxCell>
        <mxCell id="bmH2QS8Xi0sfcgq4WeDn-174" value="w19541048_Visiting_Tour" style="swimlane;fontStyle=0;childLayout=stackLayout;horizontal=1;startSize=30;horizontalStack=0;resizeParent=1;resizeParentMax=0;resizeLast=0;collapsible=1;marginBottom=0;whiteSpace=wrap;html=1;" vertex="1" parent="bmH2QS8Xi0sfcgq4WeDn-260">
          <mxGeometry x="1920.8724418604652" y="101.32096000000001" width="295.5188372093024" height="283.30240000000003" as="geometry" />
        </mxCell>
        <mxCell id="bmH2QS8Xi0sfcgq4WeDn-175" value="w19541048_tourId {PK}&amp;nbsp;" style="text;strokeColor=none;fillColor=none;align=left;verticalAlign=middle;spacingLeft=4;spacingRight=4;overflow=hidden;points=[[0,0.5],[1,0.5]];portConstraint=eastwest;rotatable=0;whiteSpace=wrap;html=1;" vertex="1" parent="bmH2QS8Xi0sfcgq4WeDn-174">
          <mxGeometry y="30" width="295.5188372093024" height="63.32560000000001" as="geometry" />
        </mxCell>
        <mxCell id="bmH2QS8Xi0sfcgq4WeDn-197" value="w19541048_cityCode {FK}&amp;nbsp;" style="text;strokeColor=none;fillColor=none;align=left;verticalAlign=middle;spacingLeft=4;spacingRight=4;overflow=hidden;points=[[0,0.5],[1,0.5]];portConstraint=eastwest;rotatable=0;whiteSpace=wrap;html=1;" vertex="1" parent="bmH2QS8Xi0sfcgq4WeDn-174">
          <mxGeometry y="93.32560000000001" width="295.5188372093024" height="63.32560000000001" as="geometry" />
        </mxCell>
        <mxCell id="bmH2QS8Xi0sfcgq4WeDn-176" value="w19541048_tourName" style="text;strokeColor=none;fillColor=none;align=left;verticalAlign=middle;spacingLeft=4;spacingRight=4;overflow=hidden;points=[[0,0.5],[1,0.5]];portConstraint=eastwest;rotatable=0;whiteSpace=wrap;html=1;" vertex="1" parent="bmH2QS8Xi0sfcgq4WeDn-174">
          <mxGeometry y="156.65120000000002" width="295.5188372093024" height="63.32560000000001" as="geometry" />
        </mxCell>
        <mxCell id="bmH2QS8Xi0sfcgq4WeDn-177" value="w19541048_tourDescrip" style="text;strokeColor=none;fillColor=none;align=left;verticalAlign=middle;spacingLeft=4;spacingRight=4;overflow=hidden;points=[[0,0.5],[1,0.5]];portConstraint=eastwest;rotatable=0;whiteSpace=wrap;html=1;" vertex="1" parent="bmH2QS8Xi0sfcgq4WeDn-174">
          <mxGeometry y="219.97680000000003" width="295.5188372093024" height="63.32560000000001" as="geometry" />
        </mxCell>
        <mxCell id="bmH2QS8Xi0sfcgq4WeDn-183" value="is scheduled as" style="text;html=1;resizable=0;points=[];;align=center;verticalAlign=middle;labelBackgroundColor=none;rounded=0;shadow=0;strokeWidth=1;fontSize=12;" vertex="1" connectable="0" parent="bmH2QS8Xi0sfcgq4WeDn-260">
          <mxGeometry x="1899.7621292980189" y="1213.7492664395065" as="geometry">
            <mxPoint x="4" y="-1" as="offset" />
          </mxGeometry>
        </mxCell>
        <mxCell id="bmH2QS8Xi0sfcgq4WeDn-184" value="" style="triangle;whiteSpace=wrap;html=1;rotation=-180;fillStyle=solid;fillColor=#000000;" vertex="1" parent="bmH2QS8Xi0sfcgq4WeDn-260">
          <mxGeometry x="1773.113023255814" y="1203.1864" width="15.831366279069767" height="21.108533333333337" as="geometry" />
        </mxCell>
        <mxCell id="bmH2QS8Xi0sfcgq4WeDn-185" value="0..*" style="text;html=1;align=center;verticalAlign=middle;resizable=0;points=[];autosize=1;strokeColor=none;fillColor=none;" vertex="1" parent="bmH2QS8Xi0sfcgq4WeDn-260">
          <mxGeometry x="1604.2451162790699" y="1213.7406666666668" width="40" height="30" as="geometry" />
        </mxCell>
        <mxCell id="bmH2QS8Xi0sfcgq4WeDn-186" value="1..1" style="text;html=1;align=center;verticalAlign=middle;resizable=0;points=[];autosize=1;strokeColor=none;fillColor=none;" vertex="1" parent="bmH2QS8Xi0sfcgq4WeDn-260">
          <mxGeometry x="1984.197906976744" y="422.1706666666667" width="40" height="30" as="geometry" />
        </mxCell>
        <mxCell id="bmH2QS8Xi0sfcgq4WeDn-188" value="w19541048_City" style="swimlane;fontStyle=0;childLayout=stackLayout;horizontal=1;startSize=30;horizontalStack=0;resizeParent=1;resizeParentMax=0;resizeLast=0;collapsible=1;marginBottom=0;whiteSpace=wrap;html=1;" vertex="1" parent="bmH2QS8Xi0sfcgq4WeDn-260">
          <mxGeometry x="3145.16476744186" y="168.8682666666667" width="295.5188372093024" height="219.97680000000003" as="geometry" />
        </mxCell>
        <mxCell id="bmH2QS8Xi0sfcgq4WeDn-189" value="w19541048_cityCode {PK}&amp;nbsp;" style="text;strokeColor=none;fillColor=none;align=left;verticalAlign=middle;spacingLeft=4;spacingRight=4;overflow=hidden;points=[[0,0.5],[1,0.5]];portConstraint=eastwest;rotatable=0;whiteSpace=wrap;html=1;" vertex="1" parent="bmH2QS8Xi0sfcgq4WeDn-188">
          <mxGeometry y="30" width="295.5188372093024" height="63.32560000000001" as="geometry" />
        </mxCell>
        <mxCell id="bmH2QS8Xi0sfcgq4WeDn-190" value="w19541048_cityName" style="text;strokeColor=none;fillColor=none;align=left;verticalAlign=middle;spacingLeft=4;spacingRight=4;overflow=hidden;points=[[0,0.5],[1,0.5]];portConstraint=eastwest;rotatable=0;whiteSpace=wrap;html=1;" vertex="1" parent="bmH2QS8Xi0sfcgq4WeDn-188">
          <mxGeometry y="93.32560000000001" width="295.5188372093024" height="63.32560000000001" as="geometry" />
        </mxCell>
        <mxCell id="bmH2QS8Xi0sfcgq4WeDn-191" value="w19541048_cityDescrip" style="text;strokeColor=none;fillColor=none;align=left;verticalAlign=middle;spacingLeft=4;spacingRight=4;overflow=hidden;points=[[0,0.5],[1,0.5]];portConstraint=eastwest;rotatable=0;whiteSpace=wrap;html=1;" vertex="1" parent="bmH2QS8Xi0sfcgq4WeDn-188">
          <mxGeometry y="156.65120000000002" width="295.5188372093024" height="63.32560000000001" as="geometry" />
        </mxCell>
        <mxCell id="bmH2QS8Xi0sfcgq4WeDn-198" style="edgeStyle=orthogonalEdgeStyle;rounded=0;orthogonalLoop=1;jettySize=auto;html=1;entryX=1;entryY=0.5;entryDx=0;entryDy=0;jumpStyle=arc;endArrow=none;endFill=0;" edge="1" parent="bmH2QS8Xi0sfcgq4WeDn-260" source="bmH2QS8Xi0sfcgq4WeDn-190" target="bmH2QS8Xi0sfcgq4WeDn-197">
          <mxGeometry relative="1" as="geometry" />
        </mxCell>
        <mxCell id="bmH2QS8Xi0sfcgq4WeDn-199" value="has" style="text;html=1;resizable=0;points=[];;align=center;verticalAlign=middle;labelBackgroundColor=none;rounded=0;shadow=0;strokeWidth=1;fontSize=12;" vertex="1" connectable="0" parent="bmH2QS8Xi0sfcgq4WeDn-260">
          <mxGeometry x="2849.644106042205" y="295.52806643950646" as="geometry">
            <mxPoint y="1" as="offset" />
          </mxGeometry>
        </mxCell>
        <mxCell id="bmH2QS8Xi0sfcgq4WeDn-200" value="" style="triangle;whiteSpace=wrap;html=1;rotation=-180;fillStyle=solid;fillColor=#000000;" vertex="1" parent="bmH2QS8Xi0sfcgq4WeDn-260">
          <mxGeometry x="2765.211976744186" y="284.96520000000004" width="15.831366279069767" height="21.108533333333337" as="geometry" />
        </mxCell>
        <mxCell id="bmH2QS8Xi0sfcgq4WeDn-201" value="1..1" style="text;html=1;align=center;verticalAlign=middle;resizable=0;points=[];autosize=1;strokeColor=none;fillColor=none;" vertex="1" parent="bmH2QS8Xi0sfcgq4WeDn-260">
          <mxGeometry x="3039.6223255813957" y="249.08069333333336" width="40" height="30" as="geometry" />
        </mxCell>
        <mxCell id="bmH2QS8Xi0sfcgq4WeDn-202" value="0..*" style="text;html=1;align=center;verticalAlign=middle;resizable=0;points=[];autosize=1;strokeColor=none;fillColor=none;" vertex="1" parent="bmH2QS8Xi0sfcgq4WeDn-260">
          <mxGeometry x="2216.3912790697673" y="185.75509333333335" width="40" height="30" as="geometry" />
        </mxCell>
        <mxCell id="bmH2QS8Xi0sfcgq4WeDn-205" style="edgeStyle=orthogonalEdgeStyle;rounded=0;orthogonalLoop=1;jettySize=auto;html=1;exitX=1;exitY=0.5;exitDx=0;exitDy=0;entryX=1;entryY=0.5;entryDx=0;entryDy=0;endArrow=none;endFill=0;jumpStyle=arc;" edge="1" parent="bmH2QS8Xi0sfcgq4WeDn-260" source="bmH2QS8Xi0sfcgq4WeDn-191" target="bmH2QS8Xi0sfcgq4WeDn-71">
          <mxGeometry relative="1" as="geometry" />
        </mxCell>
        <mxCell id="bmH2QS8Xi0sfcgq4WeDn-206" style="edgeStyle=orthogonalEdgeStyle;rounded=0;orthogonalLoop=1;jettySize=auto;html=1;entryX=0;entryY=0.5;entryDx=0;entryDy=0;exitX=0.504;exitY=1.022;exitDx=0;exitDy=0;exitPerimeter=0;endArrow=none;endFill=0;jumpStyle=arc;" edge="1" parent="bmH2QS8Xi0sfcgq4WeDn-260" source="bmH2QS8Xi0sfcgq4WeDn-191" target="bmH2QS8Xi0sfcgq4WeDn-64">
          <mxGeometry relative="1" as="geometry">
            <mxPoint x="3292.9241860465113" y="443.2792" as="sourcePoint" />
            <Array as="points">
              <mxPoint x="3295.035034883721" y="781.0157333333335" />
              <mxPoint x="2110.8488372093025" y="781.0157333333335" />
              <mxPoint x="2110.8488372093025" y="2163.624666666667" />
            </Array>
          </mxGeometry>
        </mxCell>
        <mxCell id="bmH2QS8Xi0sfcgq4WeDn-207" value="contains" style="text;html=1;resizable=0;points=[];;align=center;verticalAlign=middle;labelBackgroundColor=none;rounded=0;shadow=0;strokeWidth=1;fontSize=12;" vertex="1" connectable="0" parent="bmH2QS8Xi0sfcgq4WeDn-260">
          <mxGeometry x="2596.3422455770883" y="707.1444664395065" as="geometry">
            <mxPoint y="1" as="offset" />
          </mxGeometry>
        </mxCell>
        <mxCell id="bmH2QS8Xi0sfcgq4WeDn-208" value="" style="triangle;whiteSpace=wrap;html=1;rotation=-180;fillStyle=solid;fillColor=#000000;" vertex="1" parent="bmH2QS8Xi0sfcgq4WeDn-260">
          <mxGeometry x="2511.91011627907" y="696.5816000000002" width="15.831366279069767" height="21.108533333333337" as="geometry" />
        </mxCell>
        <mxCell id="bmH2QS8Xi0sfcgq4WeDn-209" value="contains" style="text;html=1;resizable=0;points=[];;align=center;verticalAlign=middle;labelBackgroundColor=none;rounded=0;shadow=0;strokeWidth=1;fontSize=12;" vertex="1" connectable="0" parent="bmH2QS8Xi0sfcgq4WeDn-260">
          <mxGeometry x="3377.3563153445307" y="2163.6332664395068" as="geometry">
            <mxPoint y="1" as="offset" />
          </mxGeometry>
        </mxCell>
        <mxCell id="bmH2QS8Xi0sfcgq4WeDn-210" value="" style="triangle;whiteSpace=wrap;html=1;rotation=-180;fillStyle=solid;fillColor=#000000;" vertex="1" parent="bmH2QS8Xi0sfcgq4WeDn-260">
          <mxGeometry x="3292.9241860465113" y="2153.0704000000005" width="15.831366279069767" height="21.108533333333337" as="geometry" />
        </mxCell>
        <mxCell id="bmH2QS8Xi0sfcgq4WeDn-211" value="1..1" style="text;html=1;align=center;verticalAlign=middle;resizable=0;points=[];autosize=1;strokeColor=none;fillColor=none;" vertex="1" parent="bmH2QS8Xi0sfcgq4WeDn-260">
          <mxGeometry x="3461.792093023256" y="295.51946666666674" width="40" height="30" as="geometry" />
        </mxCell>
        <mxCell id="bmH2QS8Xi0sfcgq4WeDn-212" value="1..1" style="text;html=1;align=center;verticalAlign=middle;resizable=0;points=[];autosize=1;strokeColor=none;fillColor=none;" vertex="1" parent="bmH2QS8Xi0sfcgq4WeDn-260">
          <mxGeometry x="3187.3817441860465" y="443.2792" width="40" height="30" as="geometry" />
        </mxCell>
        <mxCell id="bmH2QS8Xi0sfcgq4WeDn-213" value="0..*" style="text;html=1;align=center;verticalAlign=middle;resizable=0;points=[];autosize=1;strokeColor=none;fillColor=none;" vertex="1" parent="bmH2QS8Xi0sfcgq4WeDn-260">
          <mxGeometry x="1200.5452761627907" y="1325.6158933333334" width="40" height="30" as="geometry" />
        </mxCell>
        <mxCell id="bmH2QS8Xi0sfcgq4WeDn-214" value="0..*" style="text;html=1;align=center;verticalAlign=middle;resizable=0;points=[];autosize=1;strokeColor=none;fillColor=none;" vertex="1" parent="bmH2QS8Xi0sfcgq4WeDn-260">
          <mxGeometry x="3145.16476744186" y="2110.8533333333335" width="40" height="30" as="geometry" />
        </mxCell>
        <mxCell id="bmH2QS8Xi0sfcgq4WeDn-215" value="0..*" style="text;html=1;align=center;verticalAlign=middle;resizable=0;points=[];autosize=1;strokeColor=none;fillColor=none;" vertex="1" parent="bmH2QS8Xi0sfcgq4WeDn-260">
          <mxGeometry x="2131.9573255813953" y="2195.287466666667" width="40" height="30" as="geometry" />
        </mxCell>
        <mxCell id="bmH2QS8Xi0sfcgq4WeDn-217" value="leads" style="text;html=1;resizable=0;points=[];;align=center;verticalAlign=middle;labelBackgroundColor=none;rounded=0;shadow=0;strokeWidth=1;fontSize=12;" vertex="1" connectable="0" parent="bmH2QS8Xi0sfcgq4WeDn-260">
          <mxGeometry x="934.048786274763" y="1357.2872931061734" as="geometry">
            <mxPoint x="-2" y="-2" as="offset" />
          </mxGeometry>
        </mxCell>
        <mxCell id="bmH2QS8Xi0sfcgq4WeDn-218" value="" style="triangle;whiteSpace=wrap;html=1;rotation=0;fillStyle=solid;fillColor=#000000;" vertex="1" parent="bmH2QS8Xi0sfcgq4WeDn-260">
          <mxGeometry x="1018.4845639534884" y="1346.724426666667" width="15.831366279069767" height="21.108533333333337" as="geometry" />
        </mxCell>
        <mxCell id="bmH2QS8Xi0sfcgq4WeDn-223" value="is responsible for" style="text;html=1;resizable=0;points=[];;align=center;verticalAlign=middle;labelBackgroundColor=none;rounded=0;shadow=0;strokeWidth=1;fontSize=12;" vertex="1" connectable="0" parent="bmH2QS8Xi0sfcgq4WeDn-260">
          <mxGeometry x="659.6384374375535" y="2275.508493106174" as="geometry">
            <mxPoint x="4" y="-1" as="offset" />
          </mxGeometry>
        </mxCell>
        <mxCell id="bmH2QS8Xi0sfcgq4WeDn-224" value="" style="triangle;whiteSpace=wrap;html=1;rotation=90;fillStyle=solid;fillColor=#000000;" vertex="1" parent="bmH2QS8Xi0sfcgq4WeDn-260">
          <mxGeometry x="717.6886046511628" y="2300.8301333333334" width="15.831366279069767" height="21.108533333333337" as="geometry" />
        </mxCell>
        <mxCell id="bmH2QS8Xi0sfcgq4WeDn-225" value="1..1" style="text;html=1;align=center;verticalAlign=middle;resizable=0;points=[];autosize=1;strokeColor=none;fillColor=none;" vertex="1" parent="bmH2QS8Xi0sfcgq4WeDn-260">
          <mxGeometry x="696.5801162790698" y="2148.8486933333334" width="40" height="30" as="geometry" />
        </mxCell>
        <mxCell id="bmH2QS8Xi0sfcgq4WeDn-226" value="0..*" style="text;html=1;align=center;verticalAlign=middle;resizable=0;points=[];autosize=1;strokeColor=none;fillColor=none;" vertex="1" parent="bmH2QS8Xi0sfcgq4WeDn-260">
          <mxGeometry x="802.1225581395349" y="2444.3681600000004" width="40" height="30" as="geometry" />
        </mxCell>
        <mxCell id="bmH2QS8Xi0sfcgq4WeDn-230" value="1..1" style="text;html=1;align=center;verticalAlign=middle;resizable=0;points=[];autosize=1;strokeColor=none;fillColor=none;" vertex="1" parent="bmH2QS8Xi0sfcgq4WeDn-260">
          <mxGeometry x="1182.0753488372095" y="2571.0193600000007" width="40" height="30" as="geometry" />
        </mxCell>
        <mxCell id="bmH2QS8Xi0sfcgq4WeDn-231" style="edgeStyle=orthogonalEdgeStyle;rounded=0;orthogonalLoop=1;jettySize=auto;html=1;endArrow=none;endFill=0;jumpStyle=arc;" edge="1" parent="bmH2QS8Xi0sfcgq4WeDn-260" source="bmH2QS8Xi0sfcgq4WeDn-74" target="bmH2QS8Xi0sfcgq4WeDn-46">
          <mxGeometry relative="1" as="geometry" />
        </mxCell>
        <mxCell id="bmH2QS8Xi0sfcgq4WeDn-222" style="edgeStyle=orthogonalEdgeStyle;rounded=0;orthogonalLoop=1;jettySize=auto;html=1;entryX=0;entryY=0.5;entryDx=0;entryDy=0;endArrow=none;endFill=0;jumpStyle=arc;" edge="1" parent="bmH2QS8Xi0sfcgq4WeDn-260" source="bmH2QS8Xi0sfcgq4WeDn-27" target="bmH2QS8Xi0sfcgq4WeDn-76">
          <mxGeometry relative="1" as="geometry" />
        </mxCell>
        <mxCell id="bmH2QS8Xi0sfcgq4WeDn-232" style="edgeStyle=orthogonalEdgeStyle;rounded=0;orthogonalLoop=1;jettySize=auto;html=1;entryX=0.567;entryY=-0.005;entryDx=0;entryDy=0;entryPerimeter=0;endArrow=none;endFill=0;jumpStyle=arc;" edge="1" parent="bmH2QS8Xi0sfcgq4WeDn-260" source="bmH2QS8Xi0sfcgq4WeDn-73" target="bmH2QS8Xi0sfcgq4WeDn-52">
          <mxGeometry relative="1" as="geometry" />
        </mxCell>
        <mxCell id="bmH2QS8Xi0sfcgq4WeDn-235" value="offers" style="text;html=1;resizable=0;points=[];;align=center;verticalAlign=middle;labelBackgroundColor=none;rounded=0;shadow=0;strokeWidth=1;fontSize=12;" vertex="1" connectable="0" parent="bmH2QS8Xi0sfcgq4WeDn-260">
          <mxGeometry x="2744.101664181739" y="2518.256626439507" as="geometry">
            <mxPoint y="1" as="offset" />
          </mxGeometry>
        </mxCell>
        <mxCell id="bmH2QS8Xi0sfcgq4WeDn-236" value="" style="triangle;whiteSpace=wrap;html=1;rotation=95;fillStyle=solid;fillColor=#000000;" vertex="1" parent="bmH2QS8Xi0sfcgq4WeDn-260">
          <mxGeometry x="2736.1878052325583" y="2549.9108266666667" width="15.831366279069767" height="21.108533333333337" as="geometry" />
        </mxCell>
        <mxCell id="bmH2QS8Xi0sfcgq4WeDn-237" value="offers" style="text;html=1;resizable=0;points=[];;align=center;verticalAlign=middle;labelBackgroundColor=none;rounded=0;shadow=0;strokeWidth=1;fontSize=12;" vertex="1" connectable="0" parent="bmH2QS8Xi0sfcgq4WeDn-260">
          <mxGeometry x="3419.5732920887167" y="2374.71859977284" as="geometry">
            <mxPoint y="1" as="offset" />
          </mxGeometry>
        </mxCell>
        <mxCell id="bmH2QS8Xi0sfcgq4WeDn-238" value="" style="triangle;whiteSpace=wrap;html=1;rotation=5;fillStyle=solid;fillColor=#000000;" vertex="1" parent="bmH2QS8Xi0sfcgq4WeDn-260">
          <mxGeometry x="3496.093386627907" y="2364.155733333334" width="15.831366279069767" height="21.108533333333337" as="geometry" />
        </mxCell>
        <mxCell id="bmH2QS8Xi0sfcgq4WeDn-239" value="1..1" style="text;html=1;align=center;verticalAlign=middle;resizable=0;points=[];autosize=1;strokeColor=none;fillColor=none;" vertex="1" parent="bmH2QS8Xi0sfcgq4WeDn-260">
          <mxGeometry x="2765.211976744186" y="2254.39136" width="40" height="30" as="geometry" />
        </mxCell>
        <mxCell id="bmH2QS8Xi0sfcgq4WeDn-240" value="1..1" style="text;html=1;align=center;verticalAlign=middle;resizable=0;points=[];autosize=1;strokeColor=none;fillColor=none;" vertex="1" parent="bmH2QS8Xi0sfcgq4WeDn-260">
          <mxGeometry x="3166.2732558139537" y="2321.938666666667" width="40" height="30" as="geometry" />
        </mxCell>
        <mxCell id="bmH2QS8Xi0sfcgq4WeDn-241" value="0..1" style="text;html=1;align=center;verticalAlign=middle;resizable=0;points=[];autosize=1;strokeColor=none;fillColor=none;" vertex="1" parent="bmH2QS8Xi0sfcgq4WeDn-260">
          <mxGeometry x="3398.4666279069766" y="2602.6821600000007" width="40" height="30" as="geometry" />
        </mxCell>
        <mxCell id="bmH2QS8Xi0sfcgq4WeDn-242" value="0..1" style="text;html=1;align=center;verticalAlign=middle;resizable=0;points=[];autosize=1;strokeColor=none;fillColor=none;" vertex="1" parent="bmH2QS8Xi0sfcgq4WeDn-260">
          <mxGeometry x="2696.6093895348836" y="2638.566666666667" width="40" height="30" as="geometry" />
        </mxCell>
        <mxCell id="bmH2QS8Xi0sfcgq4WeDn-249" style="edgeStyle=orthogonalEdgeStyle;rounded=0;orthogonalLoop=1;jettySize=auto;html=1;entryX=0.5;entryY=0;entryDx=0;entryDy=0;endArrow=none;endFill=0;jumpStyle=arc;" edge="1" parent="bmH2QS8Xi0sfcgq4WeDn-260" source="bmH2QS8Xi0sfcgq4WeDn-243" target="bmH2QS8Xi0sfcgq4WeDn-14">
          <mxGeometry relative="1" as="geometry" />
        </mxCell>
        <mxCell id="bmH2QS8Xi0sfcgq4WeDn-243" value="w19541048_Work_Phone" style="swimlane;fontStyle=0;childLayout=stackLayout;horizontal=1;startSize=30;horizontalStack=0;resizeParent=1;resizeParentMax=0;resizeLast=0;collapsible=1;marginBottom=0;whiteSpace=wrap;html=1;" vertex="1" parent="bmH2QS8Xi0sfcgq4WeDn-260">
          <mxGeometry x="84.4339534883721" y="928.7754666666668" width="295.5188372093024" height="283.30240000000003" as="geometry" />
        </mxCell>
        <mxCell id="bmH2QS8Xi0sfcgq4WeDn-244" value="w19541048_phoneId {PK}" style="text;strokeColor=none;fillColor=none;align=left;verticalAlign=middle;spacingLeft=4;spacingRight=4;overflow=hidden;points=[[0,0.5],[1,0.5]];portConstraint=eastwest;rotatable=0;whiteSpace=wrap;html=1;" vertex="1" parent="bmH2QS8Xi0sfcgq4WeDn-243">
          <mxGeometry y="30" width="295.5188372093024" height="63.32560000000001" as="geometry" />
        </mxCell>
        <mxCell id="bmH2QS8Xi0sfcgq4WeDn-245" value="w19541048_phoneBrandSeries" style="text;strokeColor=none;fillColor=none;align=left;verticalAlign=middle;spacingLeft=4;spacingRight=4;overflow=hidden;points=[[0,0.5],[1,0.5]];portConstraint=eastwest;rotatable=0;whiteSpace=wrap;html=1;" vertex="1" parent="bmH2QS8Xi0sfcgq4WeDn-243">
          <mxGeometry y="93.32560000000001" width="295.5188372093024" height="63.32560000000001" as="geometry" />
        </mxCell>
        <mxCell id="bmH2QS8Xi0sfcgq4WeDn-248" value="w19541048_phoneNb" style="text;strokeColor=none;fillColor=none;align=left;verticalAlign=middle;spacingLeft=4;spacingRight=4;overflow=hidden;points=[[0,0.5],[1,0.5]];portConstraint=eastwest;rotatable=0;whiteSpace=wrap;html=1;" vertex="1" parent="bmH2QS8Xi0sfcgq4WeDn-243">
          <mxGeometry y="156.65120000000002" width="295.5188372093024" height="63.32560000000001" as="geometry" />
        </mxCell>
        <mxCell id="bmH2QS8Xi0sfcgq4WeDn-247" value="w19541048_phoneCondition" style="text;strokeColor=none;fillColor=none;align=left;verticalAlign=middle;spacingLeft=4;spacingRight=4;overflow=hidden;points=[[0,0.5],[1,0.5]];portConstraint=eastwest;rotatable=0;whiteSpace=wrap;html=1;" vertex="1" parent="bmH2QS8Xi0sfcgq4WeDn-243">
          <mxGeometry y="219.97680000000003" width="295.5188372093024" height="63.32560000000001" as="geometry" />
        </mxCell>
        <mxCell id="bmH2QS8Xi0sfcgq4WeDn-250" value="is given to" style="text;html=1;resizable=0;points=[];;align=center;verticalAlign=middle;labelBackgroundColor=none;rounded=0;shadow=0;strokeWidth=1;fontSize=12;" vertex="1" connectable="0" parent="bmH2QS8Xi0sfcgq4WeDn-260">
          <mxGeometry x="306.07125720499545" y="1334.0679064395067" as="geometry">
            <mxPoint x="4" y="-1" as="offset" />
          </mxGeometry>
        </mxCell>
        <mxCell id="bmH2QS8Xi0sfcgq4WeDn-251" value="" style="triangle;whiteSpace=wrap;html=1;rotation=90;fillStyle=solid;fillColor=#000000;" vertex="1" parent="bmH2QS8Xi0sfcgq4WeDn-260">
          <mxGeometry x="295.5188372093024" y="1359.3895466666668" width="15.831366279069767" height="21.108533333333337" as="geometry" />
        </mxCell>
        <mxCell id="bmH2QS8Xi0sfcgq4WeDn-252" value="0..1" style="text;html=1;align=center;verticalAlign=middle;resizable=0;points=[];autosize=1;strokeColor=none;fillColor=none;" vertex="1" parent="bmH2QS8Xi0sfcgq4WeDn-260">
          <mxGeometry x="147.7594186046512" y="1241.1817600000002" width="40" height="30" as="geometry" />
        </mxCell>
        <mxCell id="bmH2QS8Xi0sfcgq4WeDn-253" value="0..1" style="text;html=1;align=center;verticalAlign=middle;resizable=0;points=[];autosize=1;strokeColor=none;fillColor=none;" vertex="1" parent="bmH2QS8Xi0sfcgq4WeDn-260">
          <mxGeometry x="147.7594186046512" y="1393.1632000000004" width="40" height="30" as="geometry" />
        </mxCell>
        <mxCell id="bmH2QS8Xi0sfcgq4WeDn-259" value="0..1" style="text;html=1;align=center;verticalAlign=middle;resizable=0;points=[];autosize=1;strokeColor=none;fillColor=none;" vertex="1" parent="bmH2QS8Xi0sfcgq4WeDn-260">
          <mxGeometry x="696.5801162790698" y="1705.5694933333336" width="40" height="30" as="geometry" />
        </mxCell>
      </root>
    </mxGraphModel>
  </diagram>
</mxfile>
